<mxfile host="Electron" modified="2024-08-25T18:26:39.674Z" agent="Mozilla/5.0 (Windows NT 10.0; Win64; x64) AppleWebKit/537.36 (KHTML, like Gecko) draw.io/22.1.2 Chrome/114.0.5735.289 Electron/25.9.4 Safari/537.36" etag="-gnAG9PVpQb0ypvSlN3Y" version="22.1.2" type="device" pages="5">
  <diagram name="16" id="SjJSr3joZrBzZynHDioF">
    <mxGraphModel dx="1017" dy="708" grid="1" gridSize="10" guides="1" tooltips="1" connect="1" arrows="1" fold="1" page="1" pageScale="1" pageWidth="1169" pageHeight="827" math="1" shadow="0">
      <root>
        <mxCell id="0" />
        <mxCell id="1" parent="0" />
        <mxCell id="05_B59unjyjlrHCWXSbu-1" value="" style="shape=image;aspect=fixed;image=data:image/png,iVBORw0KGgoAAAANSUhEUgAAACAAAAAgCAYAAABzenr0AAAAAXNSR0IArs4c6QAABKNJREFUWEfNl39MlWUUxz+XHwoKShomMDSnFua9Q9Gl5Bxl6SJ0/cAcUiu3rA0bVCvS2srhlsG6zZWtLDKzNa3cJJe0jKVRTecguNOwIPphEWbcCEHlx8WZh/e93Pe97/vc+/5X5y+4zznn+T7nOc/3fF8Xzm0CcAewDJgPXAuk6OE9wK9AM3AY+BTodZLa5cBpFrARKAbGOfAXl4vAHqAKaI8UEwlAIrAFKAPGONw43G0IeBV4/soh+u1yqADIqWsAd7SNY1wQFwNDlyJ6fgfcbVcNOwDzgM+BVLuU8TFQ6IZCD9yYCRkTIDYGBgLwox+O/Ay7v4WmTkt0F7AC8BlXwgHMBI6pNl8+G964C2ZOjlyXy5dh3wkoOQDd0g0hExC5wE/Bn4wA5M6PAx679I8vgZdXgpTcqUlFllVDxzlTxElgUbAnjOleAp6yS77GAx8Ug0v3DlyCPT6oaYE2P8iJPVOh9CZYOsOcoekPWPw6SIzBvEC5/B8EIE3XYtftKQnQXg6Tx2vhv/XAnbvBd8YKVZK9sgpKl5jXyg7AdrnYkMnrmCtNGQRQDay3O/3GPKjM11bOD8LC16BVblJhsS44+QTMmRJyOHUW5m6zBLwNPCwAhOHkPLYkc7QEcqdrwZvrYMsX0TtgUx68qIMWb7mi9K3wZ58pVtozTQAUAXtVafsqIGmslmR6JfxubijbsBWz4dBD5qWlO+AbIWuzrRUAb0kp7DIJwQS2aiudvZCh/x2tBgsyoLHU7HX7O3CozRJZLQAagIV2SWVx4AUYEwu+TpgvpOrAcqfB0Q1mx5vfhPpfLMGNsoe01NWqvL4yyE6HlrPgtjaSbdhqN+y737yU5YVWv8XdLwACQJwKgBDQtlXQH4BJFTAwHL0EVfnwdF7Ib3AYkjdbuEAchqMCkD74sBjuccOt1XB4lETVQFqfhOsMk0SaT5rQxkYARLyCYNDiTGj/G/xmbrfkLMiCg+vMP5fXgvdrWwAjV6BswmDI1CTtKZ4bgK4L6pMnxkNTGWQZTi9XJ89XEdegfIbj4qFiOTyYA6lJoU3P9MJHJ6Cy3kwsMqTeWwP3iVgzWNWXsOkzJeiRZ2hLRHXr4TaZEAqTMbv6fW3+C9idhVAkSsJgbV2Qsx0uCPPb2wgRWah4Xho0PxaK2NUIR/TmWzkH7vVok/HiEDxXByWLYFbYQxaA0nin/lJuPkrF4iGDYZQ8RekcfzQUWFKjsdj5IZiUCM/eAg8sUFdHrqngXWi2qiJj0E4ZgLbjOCEOOp4JjWD1VtaVT76HR/ZbBk+4o2Uci4NJkMi737tWo2EnJmQjPXHwByfeWASJRFkkWXaaVu786yF5rDlxT782H264Bqbor6ShA7z10N4NogsmJkDqeK0a0qy6KSWZrNuKUnli6ckaF4i06u6Hf3SVL1Ksdh1kBr+RwgogY3zDx7BD1KZGekpRGgyNKMvtCnxVIohyKsqGaSnaC+kbhGOnwfsV1GnfRo5keTC/MMB+lUKOdMvChlKxsLcvZZcPE8sk+d9+mhkP+Z99nIZXOvnK4CrQP89zAJGqE3UnUYqn9c9zka21gFmCKu7tXykJSZF6klYTAAAAAElFTkSuQmCC;" parent="1" vertex="1">
          <mxGeometry x="480" y="320" width="32" height="32" as="geometry" />
        </mxCell>
      </root>
    </mxGraphModel>
  </diagram>
  <diagram id="amlqwfxN8Vk37MMwyWy3" name="32">
    <mxGraphModel dx="1017" dy="708" grid="1" gridSize="10" guides="1" tooltips="1" connect="1" arrows="1" fold="1" page="1" pageScale="1" pageWidth="1169" pageHeight="827" math="0" shadow="0">
      <root>
        <mxCell id="0" />
        <mxCell id="1" parent="0" />
        <mxCell id="cgMG7zh69ehKIo2KWjvW-1" value="" style="shape=image;aspect=fixed;image=data:image/png,iVBORw0KGgoAAAANSUhEUgAAACAAAAAgCAYAAABzenr0AAAAAXNSR0IArs4c6QAABKNJREFUWEfNl39MlWUUxz+XHwoKShomMDSnFua9Q9Gl5Bxl6SJ0/cAcUiu3rA0bVCvS2srhlsG6zZWtLDKzNa3cJJe0jKVRTecguNOwIPphEWbcCEHlx8WZh/e93Pe97/vc+/5X5y+4zznn+T7nOc/3fF8Xzm0CcAewDJgPXAuk6OE9wK9AM3AY+BTodZLa5cBpFrARKAbGOfAXl4vAHqAKaI8UEwlAIrAFKAPGONw43G0IeBV4/soh+u1yqADIqWsAd7SNY1wQFwNDlyJ6fgfcbVcNOwDzgM+BVLuU8TFQ6IZCD9yYCRkTIDYGBgLwox+O/Ay7v4WmTkt0F7AC8BlXwgHMBI6pNl8+G964C2ZOjlyXy5dh3wkoOQDd0g0hExC5wE/Bn4wA5M6PAx679I8vgZdXgpTcqUlFllVDxzlTxElgUbAnjOleAp6yS77GAx8Ug0v3DlyCPT6oaYE2P8iJPVOh9CZYOsOcoekPWPw6SIzBvEC5/B8EIE3XYtftKQnQXg6Tx2vhv/XAnbvBd8YKVZK9sgpKl5jXyg7AdrnYkMnrmCtNGQRQDay3O/3GPKjM11bOD8LC16BVblJhsS44+QTMmRJyOHUW5m6zBLwNPCwAhOHkPLYkc7QEcqdrwZvrYMsX0TtgUx68qIMWb7mi9K3wZ58pVtozTQAUAXtVafsqIGmslmR6JfxubijbsBWz4dBD5qWlO+AbIWuzrRUAb0kp7DIJwQS2aiudvZCh/x2tBgsyoLHU7HX7O3CozRJZLQAagIV2SWVx4AUYEwu+TpgvpOrAcqfB0Q1mx5vfhPpfLMGNsoe01NWqvL4yyE6HlrPgtjaSbdhqN+y737yU5YVWv8XdLwACQJwKgBDQtlXQH4BJFTAwHL0EVfnwdF7Ib3AYkjdbuEAchqMCkD74sBjuccOt1XB4lETVQFqfhOsMk0SaT5rQxkYARLyCYNDiTGj/G/xmbrfkLMiCg+vMP5fXgvdrWwAjV6BswmDI1CTtKZ4bgK4L6pMnxkNTGWQZTi9XJ89XEdegfIbj4qFiOTyYA6lJoU3P9MJHJ6Cy3kwsMqTeWwP3iVgzWNWXsOkzJeiRZ2hLRHXr4TaZEAqTMbv6fW3+C9idhVAkSsJgbV2Qsx0uCPPb2wgRWah4Xho0PxaK2NUIR/TmWzkH7vVok/HiEDxXByWLYFbYQxaA0nin/lJuPkrF4iGDYZQ8RekcfzQUWFKjsdj5IZiUCM/eAg8sUFdHrqngXWi2qiJj0E4ZgLbjOCEOOp4JjWD1VtaVT76HR/ZbBk+4o2Uci4NJkMi737tWo2EnJmQjPXHwByfeWASJRFkkWXaaVu786yF5rDlxT782H264Bqbor6ShA7z10N4NogsmJkDqeK0a0qy6KSWZrNuKUnli6ckaF4i06u6Hf3SVL1Ksdh1kBr+RwgogY3zDx7BD1KZGekpRGgyNKMvtCnxVIohyKsqGaSnaC+kbhGOnwfsV1GnfRo5keTC/MMB+lUKOdMvChlKxsLcvZZcPE8sk+d9+mhkP+Z99nIZXOvnK4CrQP89zAJGqE3UnUYqn9c9zka21gFmCKu7tXykJSZF6klYTAAAAAElFTkSuQmCC;" vertex="1" parent="1">
          <mxGeometry x="220" y="170" width="32" height="32" as="geometry" />
        </mxCell>
      </root>
    </mxGraphModel>
  </diagram>
  <diagram id="oPcr-Muwev68c8cN4fUb" name="180">
    <mxGraphModel dx="1017" dy="708" grid="1" gridSize="10" guides="1" tooltips="1" connect="1" arrows="1" fold="1" page="1" pageScale="1" pageWidth="1169" pageHeight="827" math="0" shadow="0">
      <root>
        <mxCell id="0" />
        <mxCell id="1" parent="0" />
        <mxCell id="6w1Cyiw2DETxWjOqo73i-1" value="" style="shape=image;aspect=fixed;image=data:image/png,iVBORw0KGgoAAAANSUhEUgAAALQAAAC0CAYAAAA9zQYyAAAAAXNSR0IArs4c6QAAIABJREFUeF7tnQm4TuUWx3+VJClTRSIVcpMGRZN0hVBJCWlSSrMGDeo23kaVJm6abiKNQoOUUKJZSEkTkhINiJKSsbv/591f9zjO8O3h3cN3znqe87jds/c7rvPu9a71X/+1CWWS7QqUA7ZyfyoAWwLbAfWAnYGa7k8NQD/6fXlgc2ALt5NVwBpgNbASWAT8BPzo/nwDfO3+//q9fn53f9ZmO9DS/NwmpXnyJcx9U6AhsDfQyFXcHVwlrgroR0ob9hr+5SryL8AyYDHwg6vonwMzgC+BdWV7t/EKhL0ZaV9jKWhLoDPQ0VXeJM5pKTAaeA54DfgziYOMY0ylWaE3A+q6J3AT4ECgKVDFwqlra291musk/wh43/1XJ/i80nqCl0aF1il8JHCWq8yVAdnEaV8LKbdO6uXOF2YmMAh4yTVfbP1BJa7dtG9itgsq21e2sMyIY93LW2mYuy6do4AXnXl/DHyf7YKl9blc31R5IE4H2rgXu63TulEBx70C+AJ4wzGzhgCzAraX2NdzUaFlUtR3Pr2XOht3Yj6XWWI3IeKByWU4wnE/3gnMAf6IuH+r3eWSQuv0PQbo6pxEh7qXO6uLl/LGZWu/DYx0TRJdLlMvuaLQrR27+CH3ZE79psQwAQV0znM8PWNj6DvULtOs0DqRWzhBh3OAI9yIXKiLU8oaU6BmvHswTHK9JalbgrQqdGPgHmcDDnZD0alb+AQPWKH2qU64vQ8wLcHjLHRoaVNoeS10Il/s4iTStt5pGq8ujw8CDwCz0zLwtCi0QEG9gDOABoBwFmVifwXWuxiSocC9LkjKfq8Beki6Qmt8QrQ9DrTNgWhegK2K/VXZ1ac6EdaFgBQ9kZJkhVZIuqfjJ73ChWMmcgFL2aAUedTd5RFAAKnESVIVensXSSbAkHDIZZKcFRAuW5dFQQiE5U6UJE2hhYA7yXHB3QrUSdRKlQ2m4ApIma9xkhseSxKyL0kKLb/ybcApzgVE5kaZJH8FFG1UGP0y4NckDDcpCr0LMNANkCRlTEnYn7SMQaAnRRpjd+/FrTzqX9jk252/9D3KvBhp0d+NxiksttLCZIIIqqr/jkXiVGj5kqXMcskpP6/UiBZ9k03yZRTo/3BVQP/89VeMGhFsF2SCKHFCgKdYXHtxKfQ2TupQb+ByICcxyptuAtUrQq2todY2sF0l899VKkDF8rDl5rD5prDZpqBn162HdX/B6rXwxxrz8+uf8MufsHgFLFwOC3+Fn1cahU+wCHvdH7grDrs6LoW+G7gg18LXNStB6/rQYmdoVgdqVILy5WCLzWBz92czncxZrLqUdq2UfD2sXmd+/lwLP/0GHy6Et7+B8bNhkZAXyRO59uSrvgiIlH4hi6UNdbWqOZ+i64EL0x6+1glbvzo0qA6t6kGr+tBwW9g0wqD8+r9g5g/w5jx4ex58sRi+XgorxfwRv8jk+K/j0rvOObyWRDWcKBVa2dT6FCl8GmW/oa6lTIjTm8KRDWGnqlBzaygXoRIXNZk16+DH34xCj/4ChkyDpaKpiVdkHA13DzDxi1iXqBRLyqy/VmWTpE6qbgl71IDzD4TjGsMWKYhdrl0Hj0yBh6fAvKWwXJxN8YkSdZXbKeIcqxKFQsvMUPz/NKszsdB45S2gy57QdU84qC5sI7KDlMkvK2HCXBj2Mbz4ubHLY5LMSS08iDWJQqFlZuhyEEVfoSyUBnr07vBIZ9i+UihNJqKRz3+Ck4bBDBGLRS8yP3RRFJ7dmthUMrnj/u24bi5JywVQF73W9aDXQeaSV17IkhyT31bBiE/gwQ9g+kLQxTJC0fdBCQNXO+Hy32z0a0uhdU1S1OjatLjmZE4M6QLtdoOtxBma47JoBfR7E+5W3ne0IjfejW50OHSXng2FVptHOZklTzm2swIoiZYK5YzH4r6OUKsUQqJe/AyuHQ+fRQsEVUTxTDeiGOo3woZCS5mfSEM4e7ut4M4jodMe6bzwhXFSyOSY+zP0nQiPT4/UBBEPiFLqXghjHpk2wlZoEX+L5lVZ2YmW/WvDkK7QSNTkZZLn/bjxdbjrLRORjEjE3CRyINGUhSJhKrT8Ac+45kaY7YYy0UwjCoKc0RSuPgx2qpJdGDrUASS4sVVrYdgMuGos/GDlyrbR5GVuiN+6S1iXxLAUT5dAZQULn5GAuFnhWqPJXtoCbmkHsp3LZOMVEIZk4lzo9gwsiQYnIqUe7DCjnh0GQi8shT4ZuC/JdvPWW8Clh8C/WkIFVT0pkyJXQEo95ks4fxTMj4bxTt8DkWuK0zqQhKHQohlQ0qRyAMNoL9CECnt5q83h3g5wRjMD1yyTkldASv3et3DCM7DAfnKVTmlxV6uSQiDMR1AFlKNLl0BxzCVSBN28phVc1RLK5WCgxOaiS6mf/QTOeT4yLMiHLpe37+9CEIXWu4oC3pFUqgFdAGViXNsqHYAim8rpt23hsUfMhJ4jTdJBBCK4qZKlfVX5CqLQ4s74JMkkMJ0bw9Djo4/86WRbsx4E6ZTnYM4S+GA+zFoC3/5iYJ7KQlm51vh9Zd8L0Ve7MuxZA/auZZIEFL0Usi/bpACbynbdOOg7KRI/tUyOg4C5fubjV6HFNfe8S8/lp1/r7zStDSNPhroRZisKJzFtAXzwHXz8PXyxCL5Z5u9zLVOp4XageRy6CxxWz7gZ4xL9AXZ7GiaqLKh9meAS2Sidy5P4Veh/ORiNvkm9BCoV6vNLoWpFT2vh+2HhIu5/3+CPBapXXmCY8VyZTnIzCo99ZUuoFtG8Ci6I0r/2uBd+tl/EQst3i5vd5Glf/Ci02D9fBnbz1FNEDwsh95+OcM4BdjtUjp/QasM/gSemwxL7m5w3IWXMKCgknHaNGNKLB0+FC1+KxJ6e73jPOrgl6rLeTD8KrWzexEJChZaTqVEpU10766XI/sFZi+Hfr8Ebc2FxNMGHDQanE3ufHYwr8hBR9EQoShg45Vl4RSwcdkVQU5UZEY1y1uJVofd0sO9yrSQyNKEs648vNnl+NkSb+dyncOWrkXx2S5yCaBAGdITT9oOKEe7IlPlw6H/NhdeyyK8iws7p2fbjRaGlJqotfXi2jUf5nC5R93SA83U/tiAfLoBrxsOEr2JNY9poZlLkE/Y2p3VUKWLy4lwxBu6KBkutks+qoZNVeMeLQovlSHlh8nAkTg7aCV7obseulIlx6EOJ5cDI24vjG8PgCF2Ucj02uw8WCNlsV1TuWfmo0r0SxYtCK3NXpYUTKcNOhG4qfhyi/LkGnvgILnopUkilrxkopH92M7i7g2Flsi3ysfceDQ9Mtt1TXvuqziWYqZS7WMlWoVu5NewiWKqShrzx7w/bFcb1NOxEYUr/d+CacZHc6EMZtgIwFzU3SQu2MSsyOybPh4NVVsi+yFo/zoVZBFZo2c4qfL6r/XF770E25MSzYf8Q6dF1MuvkufyVcP3J3mfn/Y3KFeDhTuF/rQobyfr1RqEVSIpA5rngpWJt6WxOaBGQK6UqkdKmPjzf3YSPw5KnP4bzXzRkiWmUfWvB5F7hf7EKW4tJc+EwkRNEI6JAEGFRkVKSQqsQ/LAk284DO0Ivld8MQfQZFWdFi4dghar0pVgUfLm5rWE2tS2N74HPrNLH/D2D151AS+fiqtyWNF35nd9KaiF4+WG/6mM45sKQT36Ark/B7MioBcMYdeFtyI055QLYawd7fWRavnos3Kaib/ZFPpX2gFx5hUpJCi0y8u72x+mvh1OawBPd/L1b8C2FsrsPg+Ezw2kvCa1c1gL6HWn/lFZ2iw6CiOClshhO9KPQwmxoe0O0TsPbZn1Kp14A++4YTptiE1JIV4qdK6Lw+ISz7IOZ9EVr8wh8l1XoI/DqyhiUg7bQ4HtxJ7RKq4myKZHSuAbM6B3O6fPtMthngGHLzyWR6+61ngZ6alPkk9a9IyJvh6byH7fe+0bTKkqhZXmJAMQyZs3/MvduDvce7f/9zJvajMtegfveC95WElvothcMU+VHy3LFK3BnNKFwzeRTtz7PRg7DohRahrdCjZZgPsFWV2izx7rCyUqpDChiDTrsv5F9LgOO1vvr8tPPv8rUd7Ep42ZDe5ERRCPCOPZwqcQ26LEohVbNQE+wvWjmYXrR5rx0GhxcN3ivN0+A60V1ksMiOG1n+assyvI/ocoNkQaihrhUYiUqtGi9lc9Vy+L8AzW9azV46xzYMSC5ojJNGt8bD6Y50AJ4fFmZLverMrdlqdfPlMSISH4EhAbf4OZT2AmtmLnqzJXk0oto3Bt306QWTOkVnJbgnreN/Zzr0rwuvH6WfbaoTo+bKgERidK0TiiIwiuotKJhGeM4rttFNChf3ahoz2CxoQWQX1fCUY/Bu98GaCQlr/5jOxjfE+pYTrIV9iVivul3gJb5KQ8KKrQASO86qS81k7xXQpNdfmiwEb7/LXR+MjJSwmCDDfi2Cn+OOR32thw1HPieyTeMUEQh1jR/jfGCCt3JJSoXhiOxMupU6Ngo2PAemgy9RkXCMxFsoCG8LeCWLtEtLeMlRZ7eKVoYm1K0xDH9ZGaZCir0TW4ZicTazxr4p5eYMmtB5MRnDHVsaRDhpIVIDHoIlLRWb34NrR6J9JCQHT3AoeK9LMNcWlBxlRmQyJzB/Iu59PpgnBtC1e1yh2ExKi3yaBfDi21TBPhv/UhkmI7MVBTOaZvxduRXaJkZC5NMiasZiHdj5c3BShCrEKVcTGGSwdhUlDDa7ncE9PlnGC0V3YZqkAvTETGEQAgSccTkAVjzK7RO5nFJdtdpwKqLskh0fgFk6DToIcdkKRLho2+17LsS/VmbQZFTPOhckqv5xYIKLVIPq0URw9CfOpVNKDeInDkSHhWjdSmSi5tD/xCwL8UtmZIj2g6KJTv+76hh5oTWvyKcTrS7TotZvzrM6RNME4Wsi6maarCBB3hb1GgPyYdlUbSmhw+KJfKqqKGAxOszCi0bZJbFuYbW9O7bwee60/oUJcDWuMUfI6jPLhPx2pnNTKlnmyKTQwodFc9fgbnIkftFRqG7ZkvkYXNBsmm7XjX46opsniz8me+XQ8O70p8z6HUFztkfHpKlaVE+0qVwkGFgjUFERvN4RqFVk/uGGAbhuUsBkhYEsKFVMXX/gZG7ljzPM+wXLjrY8ODZFHFjy8vx6yqbvRTZtkhE+0ihRc8iozqxuYP5p1ClAiwL8Kc35Tto+bBhzy9NcsU/4Q4xxFkUwQnkh45pbcXs1UUKrXrcYuNvbXGuoTWtAf9xs//SbOKRaD8kEubM0OYcRkPXtYabLIfM3p5nIoWqShuDKBO8g/RDkBX5ny1DwMOb4rwrYOdq/tp7bQ4c/RisyqFk2GxW4u6jTNFRmzJuljksYpLZojiQQiuFUuFDy1is8KapTOZWPhM/x86CYx8vfQr9ZLdwUtaK28Unp0P3rDhCw9OFfC2p2NDhUmgVmp8KKFMlFdK/A1x8iL+hKvftmKGlS6GVgymE4pH/8Ldm2b4Vc8KErqKtpdBtXLrSRCPs8i9qEIC/CMsF7I+AfT5bPbD+nOCjo0+Df1qGjyr7R0odk+SFwKXEZzpRlujo9kKYrQhUPugF5X0UoH/nG+P8/7MUeTlUomNMD2gSEilPUVvY7anYmacukUInmlCmsMUTnkN2dINtvf91KJrV/MHS5YduuK3hz7Zds/GAgTBlgfc9CfGNe6XQg4CeITZqvalK5WHEydC+ofeuxJKkTO+0s4t6mfn+tc0BYLMymMaz7U2RI+0KLsOTUuhEl5ooauOubw03+vCr/r4aaveNHLPrRf9Cf7ZTI3iuO2xi8Zakopw19a2PV8ZqinJIq3RWqqRZbUMX61WUrbJ3f5j5k9c30/u8cNDCQ9uUiXNNUCVmmSqFniNUZswD8dW9yGZa+Cg8ed4L8NAHvrpM5UvvngsH72x36Pe+DZfGz3EyTwqttKvEsiQVtw0inHn3PO9Vn176DI6JNjvZrjYV07qwL99f432NvA74xKdh2Cde3wr9+R+l0OKrrx560xE1+OxJcPxe3jqTD7rqDbGBaLwNNuDTx+1h7GebIoz5/vfDTMHs45VlUugVSS2mmc3atN8Nhp/svWhQ+0dhnIytHJfhJ0FXj3/wXpdEfHat/puILPrfpdAi6/ARovA6bTvPKwv8nqO8Fw6SzafIVi5nftesBFMvhNoBSS1L2rlJXxt8TAKqhq1JvUJrsVU86J3zoGnt7Bn9tQnHPxVL/ltJ+hHa79s1gJGn2Pc/D54GZz0XKcFMUWu0NvUmR2ZmuiAKUdYoS0YlpWIdMRg+id/uC02BCzZ0Yxu41sFB2y7tdv4L8GAyvEZ5JsfPTs0Kn+hia3vhq+FDdjZVZYUuK0nkj9Zn8qUvSnoyvb8X3iXMCrtFrUSTAfDxD4lYp6WpdtsVtoTCST9wLDTcruQFvuUNuE7kZzkoqib7wQXZ/XEHmf53v8Cu/WLLUik49Dy33VcuyD/IvBLzria0+/bwcg/YpYTvzrMz4IRnEjP0UAcy9gxoJ3IKy3LD63Cj6rsmQ/ICK6kMfZe0fvJ+XNMKTtoHRH1QGI5h5ExTMDLXRKfztAvtYje0ZvLn1+8HC1TfNRkyTQotimrLJFHxzFa2tNjrdVJ13RP2q/3/T7ASOS95GUTSnUuiOfdtZ5+YUWsm2oJmKi+VHBmXSvio3/WrWA4OrAt1q8CPK+CNr3IvFWvnqoatX2aXTdGl+vZJcLXSq5MjefDRvs7XIwB1S3JmUzYSg6q7ua19V51guDLXXk0WgVx/KfTZTsb3w2XKkP4VUETw6ytgc1EHWRZ5N/bsn4joYP6ZXiaFFsGMSk9ahH9bXt2y5tliM3iwEyiBOAq5bWLizA2hGPKYk0QwMyVNNAZRbFja+jigDozuYQjhbcsfq6Hu7bGxjBY1PRXgzKMxEGWL6r0lnhva9kaltX25KIWqO2YP+zPQZfDRqXCWyOOSJX8TzaSOCixZ6xj/aC5rAbcfYT8qqJn+/Dt0exomqHh2skRg4DwqsFSRNSZrDeMfjThKXjsTto3A1NBsRdTT5clEJhlPzpA16k78mBMCPyX+7Ql3BKrPV2FzAy/N3PwVUBHJzEqhwFMuFcqBMnY67G7fTZdZqhOehmfjT7UqbOcUIOyc8Wzc6NSnuD6t+yt4pLgnlAkuTPSu1UHlgKtuaTa6oPtG12GFbX/8zWRZzF5saq689y0o+yItoH/5m69uGazEnZc9F0N/04GJwD0XNux7VIAzs9eqap8KmI4uQApn71MLDqxj/t1rB9iqvJetKfxZXXiW/A4ffQ/vzwfV3Zu1GOYsSZaS64+0c2MYdlJ0J/OKVXD0UFBiRELldFkaGYUWL2XikcFtG8B5B5oi7DqBt7CcOKZNVCLAF4vg8ekw+gtYEw+Z9wY6JGov1e7eLQuIbFjKp7nL3Pgjuaaa3M+fZhRakHhRr/hgiwtryQpvR3biQTuZW3wUYPXiZjP3Z7j7LXhlFihSFodpojzB8T1hzwjZvNetN0XppdQJFTEXKFfp77JuGmfiOO4E0r+hDRzRELbZwj4cMpvN0uZKsUd9DgPfh/kR1gvfqTI8fJw/Tr9s5lbUM09/BD1GJOPrVMQYHwdUBWuD+9KRwMtJCIHrsyFGJOUI1qkSZCvsvis+t96j4fnPYLXlEhcyr0acBEerGl9EojuFvkT170y0MutDebxD3J9X7Dq/A0DF61VNNlYV0qVPNfVuOByqVYxo5wJ0o03Xp/jWiaAKWzZkl6oGpxFFBkr+8SvEfcEoGPKhjVmF1qaK14uHNo+tsKBHawLQKrSufDR0+n6mnp5Y59Mi6/+CpX/Ala/CYx+G69baspyhIpDZZZM9tLC1VlWrI4cknnr4XbcKhbAcGym0CFGFjY4Fede6Pjx/CmyTmmovG6qBTrT734e+E4NH0rQBomZQfe5mdaL/0/5hObQeZDw8CRaZG/cBl+hCWJhCqxq0aAxlfkQqQos9392449Isa9fBpHlw+ghYoI+hT2lT3yhzvRhYB+WaO2skPD3D5+Cje01ORJVU0aUwTwqexKLVFfIuS7qWcEYu19zQ403eX9Sf1XBmsGErsqvHz4FTn4VFv3vrQdUJuu9r6M0Uto9DVJ7t7BdSAQ8QL6Nz4/p/DKWgQgvXMda1SSJby/12NCUTKqfU1ChsoaTUKiF3/oswb1l2S7njNnBLWzhh7/iUWeHtY5+I1h2Z3eoU+pT4mpoDf/uYCrOVIw+Dy9ToFAGWN8DC+X518nzoOLRkDr229WFUD9DXKi6R3bzPAO9flbjGC5zqmsh/D6EwhZazbB5gOW/YjKHW1vD1lXbD2DotFbJWKFvJnSqLLFtXZeH0iZd7MBv6MD8bp77HOJHFniPhJ30g80leulBN6HUQnNTEjCUu0YVWwRNxlcQRAfUxbwH6VZfgj4JrWlhbqpYhY9u6nNIEnugWfjdSJAGMxs+G9+bDV0uMIivSJzebfi+Qz2abGlNHHgWR0ggv4qf+YXEzUF/CEStL+pc855K5vFzV0tAA77B1vHcHrYfYQ4d+COtSos1OGZUngY2o3Ityzx3lMGo9GwUR+u3t4cqW4Si0lPXTn+CJ6SZNKKM8XlqXl+XcA6BjI2i0fXgZ1MJhD3gHbpsELXaGm9qa0zluEfv+f94zPvQUyUrgDGBYwTEXpdCqOfqiEwq3nkOs01mndFDRKTNkGlw/Hr7/LWhrxhRSHcTLDw2PtEUYbEFTpchhwF2DzxLue88QViaArNzLdD536tPr0P0mW4XWc/2APl568fqs/ppe6B5OcufXP5vbedh1PpRFPbgztG5gLmy54FbUPq1ZZ75kPZ/zumuJeP5B4PzCRlJcRHB34GOHWcnqVeXFkBRaGSedHs/eReZlW7RIZzQDmUdR5e55GZ+fZxXRvOpV+G21n7djfUcjluUw06tC63nZ0UIyWZOnTjCXsaDy8x9God/e6CMUtGXzvi6Qe9aAsT1BxeDTLA++Dxe/bE7pFIpM4U5FjbskzMa+wEQ3M9zK3Pt3gIsPCafp9781cE6lTtm6re9VEwZ3MUymaRO5LIUz6fdmYgjKvS6hHJ+COb/tV6GVHD/cbcRr51k937s53Bsime+iFYZAUJ9UKbYui2GIeOOUw3hQXTi2kUnETZPIB99jOLz8ZaoZV990zOBjgSLTKko6obVnPd1sFiv717oevH6WlaZZ+Cu8NQ8+/RFmLQEpuygM9KnVCZ7xSeuiJ6oDYbEFpJedLMrd+tVN3p5yGGtUSu+FUIg54ZrfSB45jNeNv8hF1xX5XjYKXdW9HO7ktfdsnq9aAX641m6kMDMORQdXrDZKLb+wfqTUso+lzFtubqJ1YQdWslkHG8/o66TkgxteMzQNIX2sbAw1mzaVPiEHr4pcBVJovSy7ZbTuRtn07PWZV0+PPk/O6xjT9vxqp/zzgHfh2vH208MiWBthnYUxGlFSX9mc0Jk2FEtqX1KDfn5/TCN47hQThi6TYCugU3n6QhDdrUrW6SuUA/KGG0hxgQPBT2i10BF42kY4fNuKMOkc2CNSFHYObHMhUxg0Ba4amziq2yCLvcoNc0v3ShQvJ7RySeQDPKzEVj0+IA66W9uZMHPZKe1x8TBAK4XUVfNkRKHhBu9tJugNcZe3K86zkX+sXhRa78kvrTJwoUcPldk8uRdsXylBS5mCoSxeAXe8CcNmGJanlF/8Cq64ooItXEL+rHbDq0Kr0f7OTfNCGxdE8bUJrCRvQ5kUvQI6kYUkVFZ2n1dgdrH3/tSupKx/wZjP9TIDPwqt+qQipGngpaNsn737KLiouT3AfbbjSOpzIrQRCF/w2De/thcRTcD857v1Mz2R9/pRaM31GuAWG5OutqXhbktjaNnGeuRvU5HPc5+HaQtt95SI9m8DrvY6Er8KrZC4TumQoPkbDlvJoo92AaXyl10SYfmfcNFL8MyMnPApZ6OjYh44AiiQtFbyq34VWi0rcjgNsELqqlDzgKOh294lTyLXn1A0UzjvIwabCrg5LmISPdQvvXMQhVYY5ArX9LBS6lE0WNe1hjOaGu9HroDr/Srk5G+hz6vwjiWIrN9xhfzezY7D4SZgrZ92gyi0+qsGvOJweRzop/Ns3hHOQgCmGw83SLfSLPJuqITGnW/Co9NMWY0cE3nRVQhWGd2+JKhCq1PF90QaZT3O1/sQuPQQ2MEhZLFFO+BrFSN+af16eOEzuORlY4KkFKhfcNWkxHs5brofgyxnGAqt/gUxVdEW68x0u1aDjrvDyU1MgaC0iDAW+tqEKaoZKG7qUZ8ZaOjKCE5szUGHSch82CJME0moiBcDSVhLLBv6oai4PDIzVo2+fkdCq3rJ9IYs/R1GfApPfgRblzdklLb46oT9lm96+Ez4crGBxXoVuUyVyKDkBR0c+hEuXKTzuqSrqlimro3QfOLDPn0kfBU8sKNUv5PzU3p5HXvm+bAUWu1VdoiAlEMsfukw2y12buqowbYgKt6D60KD6rBTFZP3Z/MSKXtWSLZfVhogkJIHRKUlHjt5JIStULm4jF4Jby1imetb2y3DpnEtX2XK0ylLpWA9Rp2wqtmoaKyoFJTJXrE8VK9oMOFeZdoCaDbQ61t/P69IvdKpBHwLwNX6//7DVjxFEQVgUsZ45KKsE7Eg6UdZJ41rwt41DQ/GztUMQ5GXyllSDiUDSFlVfkJ8H6LIXfCLUVydTL+tMpWhlK+n5IHi4Jry2lzcHG5tH775Efliux0OnwHd/BcEVJE4Jbx6igYWN9ewFVp9aYCqTGvdnvaziTqJ9GnVyaTMFJ1KUlylZEkZdcHKKKiUVD9hA376toNLW3j74/IzV9vvaG2aPwAz/F3jRAd0dmHsR0HGbUOh1WYX4FEg5Qn/QZa26HeV5nXBwXDT4eFRjdkZadGtykYf+B70VrzYu0iZBXATUXmo54UNhdb0FHRRueV/OYGXGAliva90lG+cfyDccQSZ+j7PAAAFPklEQVRUSlE9Ga2PvmjiEDx80MaMqlmsn9hA+gYJnkRtcmT60yVRAxf8ryy5qpBdkM1/9O7Qtz2oJmMaRGbZ2C/hvFG+Sm7ojixz9NKwLoEF18zWCZ3pR6ezfIvnROn5SINi5B+jXGJikJKnJumiFK8+Y3wxu8q0GAqItMKax9y2Qmt/VG75ftuUYklXhJLGpzJ2It0RE2v9bZPnBRG/9l1vwSNTfZP3jHK/1v6ukCUtoPv7KBRaXakagLIP5G8sk2JWQC5GhfdVOCgJ0NkMt8e/XzP+dZ9MVKrb0yNTHNOmAkSl0JqDCGtEgyryxyj7tbl+1to+eCcDyGqyo4nQhR02L27gmeDMrMVwywQY/aXvacrMeMk1OfMqvdqWqBVLJ7XggSp3UXZRLGF3FYjZd0dovxt028uYIjajnzp9pcRjvoRxc0AFjxQ48im6AMotJ4yGVTMj//iiVuhM3wqW6qJY5tLzoC0K7fdsCh12N5Rl5TYzQCFtYraKrtNXx6b8yBk6NOFABHIa9jHMDOcclWtOF0DtsbULYGFLF5dCK+DS260QUBZ88aDUelQn9z+2NxiWOpVNSF+h/ipbmt/lQWs3AcFMFQEVblr4Dp22y1aCUHqqyPXNMpi31PzvEOmHFTQZANxlyzVX3HLFpdAak07n44CHHWqEKh73tOzxfCsgoh4BjqTIsrUzp7VOY4lMibwTWeH9dSGH5jbciUwE8KmoT+bMMOJUaI1B/UupleErL2zc4yn7Q/G3AvrTUW3La11sRqjhbC9DSooCCZ0nApvDy5Tay/Yl5tm3XGxGaKg5vzNLikJr/LKlpdRdHftLhGBJGpvf9c3l93QKq4qr3HLnxWEvJ+lSWNRG6zqjdK5/O4EY1Uosk+SuwCIXgKY7UGLKDyX1FBRUR3zU+yV3P0v1yJQULUbQcJx8IS5lUhVaU5Tn4wJAdTVSgkULcWeS2ZSyBx9w6Cv+4+yNCGESJ0lWaC2WstzExiEciHipkz7exG1wiAN610XKzYnLJZfNXNKiILokXgl0dzJh6pSFzbPZ2lCeUfha1JDKGhQ5ZwhV1EMZV5GNpEWhMxNo7N6ohaktY5G2qxtrXDC+TAyVyE6FpE2hM4uq8l7Cg+jSmLIEpsTrheBIouRSzt/kxI+2wADTqtCahlK8VJXrDJcLpAzoFEz7ZF5McpObx2Rb0yRYl+G/nWaFzqxGBaCtG5TZJfwlKhUtii1feX4i3iyxdFqSVyQXFDqzvjqxu7kJBM2SyguSIGUQ0/RUl+1Kl76lCRqb76HkkkJnFkEEN7o8yoct4FOZjb2heqiylMLVgnjKVg6Fgsu3Bob8Yi4qdP4lEjWZaBTaONkTu9ooGhryfthqTpgL0W7JRlYa3Oe2Ooq73VxX6Mz6inj3ALduh+qW1ywlQRrhLQQhkG38gXOBlq2c01JaFDr/JsoEOcY1SfYBdKmUhyTtayH0m9Kd5Hb71HVrPu8EpFbmtAbnkNsu6D4prF7PPblVIVc+bTHIywZPi3JLiZe7CvyhQxMx3a26OjtJCLigG+Xl/bRsnJc5+XlWsFWVe5Yy/9Mt+KiyYiLJSaIsc+raiOtitFM6eIKr1Lrs+aA5T+L0/I+pTKGLXjud4I2ceoxN3ZNbp7loGKq7HCNSfhumSsZ0EG5CiiuEm2zhua5XQqX0ZFIkBoPsX/3Cf7NMobNfU2FHpMSCtepfFR9VoSSBpXTp1GmuqmBSeP1UdO1z2ej6kShokfmR50G+Xyms/hUcU0Cg71weC/mJZU7IraYfYSvKpIQV+B/oqAOsSApaGAAAAABJRU5ErkJggg==;" vertex="1" parent="1">
          <mxGeometry x="140" y="330" width="180" height="180" as="geometry" />
        </mxCell>
      </root>
    </mxGraphModel>
  </diagram>
  <diagram id="2sE6H73u1kqxqwxUURKn" name="192">
    <mxGraphModel dx="1017" dy="708" grid="1" gridSize="10" guides="1" tooltips="1" connect="1" arrows="1" fold="1" page="1" pageScale="1" pageWidth="1169" pageHeight="827" math="0" shadow="0">
      <root>
        <mxCell id="0" />
        <mxCell id="1" parent="0" />
        <mxCell id="bfoc8AvMkIAv__4TwKHs-1" value="" style="shape=image;aspect=fixed;image=data:image/png,iVBORw0KGgoAAAANSUhEUgAAAMAAAADACAYAAABS3GwHAAAAAXNSR0IArs4c6QAAIABJREFUeF7tnQWYVtXWx38igiJSKpIK2I2IgAl2AAah2AX2vXY3eq3rNTBRQcDAQFRCkDCvhaCfCEopCkhICAiIhH7nP/u83GGYmfe8J/Y5b6znmWfQOWfHOnvtvfaK/9qIAgXhwMZAJaCy+3sToCqwA7A9UA+oA2zj/t4S2BTQc6n31P+fwGpgFbASWATMdX/mAbOBacAPwO/us3pe7+lnbZBJ5PO7G+Xz5H3MXYs2tbi3BbYDGgINgNrA1kB1oIKPtr288hewBJjv/swCZhT7SQmJhKJAHjhQEID0TNKiPgI4GNgP0C5eDdjc3fnj5uHf7imwHFjqnh7jgA+A9wCdIAUqgwNxf7ykfRipMlJhtgLaAicB+wNSdbKRpBqNAQYAw4FfXRWqcEK4X7MgAEYf3xFoCRwA7Avs5u7u2bjoyxqzFv1kVyA+d39Pcu8TuTTPjOaSzwKg3V47/BnugpeqI7Um13kilWmFe4eYALwKvO6qURktnlx4ONc/dvFvpLlWcS+rpznqwCWulSYXvmPQOUg16uEKg6xPuk9IUHKe8kUA6gLtgKOB1q6On/Mf18cEZX792LnsD3VUwmGArEw5TbkuAFr43Rzd91TXVJkPKk7QBaudXyfAL65q9CQwJ2ijSX0/FwWgonOc13J1++tcJ1RS+Z8N45IZ9RHH5/E8sBBYkw2D9jrGXBOAPYEuQCdgJ69MKDzniQM/Aq+4JtWvPb2RBQ/ligDIC3st0Nm92Mq0WaDwOaDwC6lDbwN3u36F8Hux2GK2C8AWru1eR/TOeWDCtLg0yu1K9wT5FG5wjArvux7opIwto3FkqwBoh28PnAsc4+xG0vsLZJ8Dug+Mdk7dZ4B33EA++6MI0GM2CoAcVve6TqyahV0/wNcP51WdBjKfynQqNVQ+hayhbBIAhRFrt5e6oyjMAiWPA7ofyME4wvU2J2+EJUaULQKwN3C5a92R3l+g5HJA+Qq6JD8MfJXcYZqRJV0AFFd/CnCba9aMKs4+6d8p28anvAWZTfXdFGeUWN9BkgWghuN4+YeTJXWTm0WVbYugMF6T3faQE2L+oHOC/5ZEhiRRALTLH+TuHocnkWmFMWXMAcUX3Qx8mrT0zSQKgILWFJmoi25B5cl4rSXyBalEPwHXu57kxAwySQKgQLVLnWTxe7I4AysxHzahA1GG2p2uWqSAu9gpKQKgUIb73KhNmTsLlLscEPLFS66KG3u4dRIEoL6DtPCiG9Ig1IW8pAobwRaVoXplqFIJNqkAFTeGv/+GNX/Bn2tg2SpYuhJWrM76bBUJgXKVFaYeqxDEKQDquynQz9EL98jlVV95Y9hsE9i0IlStDLtsDXtsA7vWhiZbQqOaUKeqWfDpSAIhYZi7DGYvhWkL4LtfYeI8mDQffv/T/P2P1fBn8tGChHOkyN3xzomge4J1ilMADnEysx53F3+c4wid6drNG1aHPerA7tvATlvBjlvBdjWgXjXYxMNCz3RQ6wTjd5i5BKYsgO9dwfh2Lsz5Hf5KXpKjRqS85Gtc73Gm0w78fFwL7ygHUKoXIPUnrjEEZl7JBqpVhra7QOe9zMKvtRlU3xQqVoCNYpjlqrWwZCUsWgHfzoE3JsCwKeb/JYgkBAqhuMCNJ7I6NNufRf0d56QnPudCBVqdbNidbbwRVNsUtq8Flx0AHfYwenySaf4yeOUb6D0WflxkVKaEHAyL3Sw+5SJbU4dsC4DApqT2NEryIkk3Nqk4+9aH43aGo3aC/RpEo9akG0eQv/+5Gj7+CUZMhXcmw3fzEiEI092I0jeCzC2Td20KwJHuhVdgsVlLe9eB69rAIY2hdlWoFIE+b5M5ujDPWgJvToAHP4Z5y2z2XmpfCqc+z5Y6ZEMA1IdwNWX7FYhs1pFMklrsUnMu299YcnKRFq6A7qPhpa/NvSFG1WgB0NGFaIl0GDYEoLip00Z/oa5NWW4uaAmnN4XtlH6T47T2Lxg7C3qNNXcF3RFiIC36b53L8YVODohgHCOjqBekrDy61MjOH3VfoTJp4wpw2l5w8+HQuCZUyrOkSy38L2bCFYNgYjw5XhKC750AOlkMhVEUCUW5KBXeIBiNQyMZeYSNylZ/5xFwVrP8W/gl2TprMVw+BIZNgj/iieqXx1j535GIYVQCoMC2x4DT3UooES7X8Jqusgl02B2uPgT2rhuP7T682YTXki7KL34N//4QJks7t0sSO0ULyFkWek5BVAKgwd6VTYksClW4+yg4tznU3MzuF86G3nQ3kEp04UCYYL/kxh8uEILWVKgUtgCoPSWuD86WkGYNeOvN4fEToNOehV0/3eqa9zt0fgk+m2GC9CySIptkGRoUJnJ12AJwINDXLRBnkTf+upJDq3VjuP9Y2E+VvgrkiQMLl8ONw+GFr2Gl3XuBLsPKEf/E00A9PBSmAKg43GtuPa2syOQ6YDvodzI0rgUShgJ544AC7xb/ATe/C0994e2dkJ7SmTMSODus2mdhfXYteMHkCS8yrDZD4tmGzSiG58BGMPgcUABbgfxxQNGll70Nz30Jq+2FXss8+i9HDbo9jJihsBarEJkFn534bC7t9B33gIfbQX2dWQUKxAEl6Vz3DvT+0mr+geJZ5SSTdSgQhSEAAq2SvX+XQCOx9PI+9eDNM2HbGoULbxgslzo0fzmcPwCGqOSePVKS/QluMo3vXoMKgHZ8VRCRTpZ4vb9JLfjowmTs/Fo4q91UR6kPsqjI1Lj2b5MGqXNeH0cnVoUKJkVSgXf6qVwxecKrHIODnwYl31gisUhahxADfYfwBRUAVVnUMaTauokmpSH26gS6+MZBWtRSF6bMh2kLYfpvMHOxicRcsMJcKhV+oHzfVWtgzd8mkUZplHLQbVnFBOTV3cKkVO5SG5rVh/qO1zqOZJvSeDhhLpz8sslEs0SCYbzYDbT01WUQARBK81hgW189W3xJC+jJE+H0fcyiskna2cf9AgMnwHvTTC6vFrqEQTu+H9IclIhTe3MTln32vvEJdvHxaz7Pj4WrhloNopvphE7v59cq5FcAhM8vTPhz/HxAm+9ogl32NuZOL0nnQcemnV6piL+tgHenQo9P4P/mRJ+Pe+QOcOvh5lTYPEZsDYVNnP0qvKpYTnsk87vqPauCTUbkVwCUyd/TLUaXUYe2Hz6sCbx+BtRSheCISWbBz36G18abC6FSDm1S1UpwzE7QtQUcun18yTpzlsLRveBbeyETugOoWIoyyTLKH/AjANWcckT9gWOTbvNXVOfAM6ClBSXt59/gnvdhyPcmq0qX2bhId4Xzm8ONbWCLmAzTo6dB+z7WIkjFbYXdSyOZnwnf/QiAFr7iMRIdIS9n182HmZ8o0xZXrDK5tZe8ZX/HT/eh2+8KT50IdavZ93QvXwVdB8Cr4zPcktNNquy/KyhD0cdShzxTpgKgGP+P3IJ0njuJ40FZSoafF10Wl3R9mfwe+cSkEErvTyKJD48db1QiJfnYIvFHCfdnvmr8BJZoKiC8Kc/G2EwF4N/A1UlXfcTsV06Fk/eKzkT41S9w3usmNDhOdcfLwhJsS6+O0Hp7L0+H90zRhfg1cwpYIqlCT7kgy566zEQAVIRaYc4xWdI9zafooaN3hOHne38+kydlo9fO1qU/6JjPFhJA14jzoHlDu+qQNopWTxinnyXSHUB1JTzZobwKgPR9wVqrCmCii1Artl8X34Mah89uLf6nnejHO0bBb0rRyDISBmn/U6Flw+hOxpIskSqkMInnx1ljlu4CDzhO9O5A2pR+rwIg3f+/jsdtR2vT8NnR2c3gsROiQWjrOw4uH5w4aEHPnNLHbrcrPNfReJVt0Tez4YCnjJfbEk1xrZSqU1YueRWAq4D/pGss7r/LASSHlyAKwyR5c9+aCKe8ZBGzL8wJlGjrobZwxUH2ToElf0DHF2G0sKDt0a1ueH5gAajrlrtMPKKb4ApHdYUaIeb0/qXF/50xcyYANS2U5VNzU2Mha2HBP6IBi4f3fwi3j7R6F1BEUrN0kCpeTgBJkvSpxNMTJ8Al+4c7zBmL4Zhe8H1G7pVwxxBFa22aGCFQZKkN+vBH6PKyiYWySPe6VUbL7DKdAGj3fy8bYv1l5Zh1Y7iwhSoyccrLMFjwTDlGQrGWqfjYne2oQrKYte5pAgMtkqrPtHDh10vttjwB0N+6uQXNhPOTaPrnAfDo8eENUTH63UfB3e+H12aSWir6uC3goXb2guduHQF3azu1R8ocU77As2XFCJUnALITKNb/xKQ7vhQeLN2/dZPwODtyqnHiqLJKrpIgH0d0hR22tDPDz3+G/eWmskdyjL3l1CHrCpQamlieAMiS/qWD8GaJPf65slddGHRWeGEPOq5lu7bowfQ/+YBv9ukEZzcP2IjH15UvsM3dIBRqi7TQCd85rKzUyfIE4BYX3c3iWP11dV5z6HF8eEe5dv8OL5iklVwnXYbfV3EiS9TlJeu5ApqZUCS0njegsgRAYCGy2grdOdGkqE8BW111cDiXOZns9n8SxsRavNMey1Ww76frTfE+G/TMF3DhmzZ6Wq+P2Y46LwV5A89wWQJwMvCq9WH66FDWDLn3VZwuDHrjW+ikUh55RM92MEk0Nmj8HGj6qLUQ6eJTOtOtR73eNEsTAFmGB7qQ1DZ4EqgPufQ/uQh22CpQM0UvC9ngxL7wgSpV5RGdtDsM1PKwQL8shX17xOJU/MCBVFSZrvXAHEsTgN2AIQ7GZwThZOFzWJaM766CTUMI0RsxBc6wG78ePkN8tCgeTrjSVKiPmhYsN47FcVJK7JISNFWrYj2vTmkCoNzKHtkAdSL+SfUZEkJqviwUt42Ee9+P5Xi2uxRK9KYI2g8vNJXro6alK41zcbjC1eySfAKCUOlTvNuSAqDLr8qYKpo+nZfY7vDL6O3mQ+Huo4MPReHNJ/aDj/JM/RHnhI/6+umm5GvUJO/6RW9Cv6+i7mmD9uUTUH3qK4B1htiSi1w2f6Hv7mN9eD477NPZ4OIEpR8Xwt6P5ofpsySvBL719Enh8DHdd1Bk7bXvwCMKrrdPX7twisISKqKSArAz8I1TjSNrMJP/ezEcGEKO2nNjoJuu/nlIYZuSy2OhEmSUUKRyrDGQzKAq2SsHb6kCcKUb+xPD2Px1OfNGaBACyvNxvWGYfb3U36QjeEsQKncdZSdx/sGPTIENyxVmUlyTQ0yOsVIF4GPgoAj4G1mTK++CygEtQEre3rJ7duX4hs3QS50C4A8eF441Ld3YnvocrhpivbpMaliqO7wuaL64CiRLuuAkNk43gaT8XZe3JcpUDkhjZkLLJwI2kuWvqySs6qTJsRg19foS/jnIaopk8SkJwEZh/kUZHsUFoHOmoEJRMypd+w2qwcyb0j2V/u9PfgaXvp3+uVx+ovOe8EyHcLPpyuJXv3GG3zHGWglHtMjfX1wAVNf3smz6yML7/+G64CO+aCD0VDnmPKbjd4XenQ0Me9SkmsNKMRVKdkzU2zX1rxMAhT+o8p6liJBwpi3HjbzAQUhWicOfhffT4gcE6SX57x63M/Q9GbaykPokH8Clb8V6AqiWjXCu1qROAJk/BS6aFeEPqeW0e22YEFAAlv0JrZ6EifaQjBMpDcfuBH1PMTWTo6Y+Y+GyQbEaHZQwLwjFySkBaOu6iEMIKYuaff9rX5lMUwXVFYBUpUUnwFSlTeQxKaRETkUbJ0DMl2B95aXAaU5hjaEpAbjItf+HCCgS/WpqWB1m3BisH5X1adcHfl4crJ1sf/uk3eC5TnbqKMRsBtWnUqqTcoWflgAIM1iOgeuzJf4ntdiEb7PojmBL74uZ0PEFUJhuPpOAhHueZMcK9PDHcP0wqxhBJT+t4oLuA26VAGjXV9a8sNWzijT4FXcFc9588COcah+vJnF8Pr2pqaOm2mNRkyJubxkRfdmoNPN4EbhEa6iGE/wmK7guBVlH06+DRrX8D3vUVDj9FfjVHoa9/8FG+Ga3/eCR9tHnBMjqdpvgUeKHm/lQ5eMkAIoClwl0hwj5G1nT73UzxR/80rtTrBdx8DvUSN+79hC45+joCwkKb+maodDj00in46XxaULSlwA0ACYAIYSUeek33GeEBvGPA/y3+e5kOPM1q1VM/A82oje1CO4+Cm48NBxggfKGuXK1cYJZhEsvazhLgAM0d6VASgCyIgGm5Gx0dD/T0f/KEATKGXmuAqkKvdSfsHFVS/sqCn8Q4JjqJsdMugjvr0Xf3i16F/N4/HXfrB58can/o1sZYErRm5vDCHDpOKtC4s93NiWloqbFbubdh8nIvDtNAiB76CNRTzyq9utUhc8u8X8R/nKmAcGalcdm0BqbwqCz4WALcQDzl8Fhz5raagmgmyUA9zvWxBBCyuKZjkKiXz0NjlEwhw+a9Csc9zxM/83HyznyyjbuJtI4gDXNKytmL4XmjyUGc7WHBOB5t8Cw1zkk6jml8915JNzgZDT5KQP66zI4pCdMzjH8/0w+kqpIChYlDGiZdP2Kz3s+HKsTrPgQ+0sAhgLHpRt4kv8eJJR3zVoTDGcZtz5R7FQkqKBlNrJgBhk6yYSeJIRGasqKhN8vIQPyNQwd4SO7wp4+izid1h/6CwogT+mBY+Ha1nYm/8AHcP1wO3156OUrCYAcAgFcSR66sfDI9a3hvmP9daTYlKt0DuYpfXM5CGLeBnV+EQbEbwJNTXW6BEBFa+rZmHyUfdTaDL6/2l/5T1mCWuRpTnCdLUDIGioyYoO2uxdmyAWVDJorAViQDUUwvPDrwpagQnmZXoYFi1j3X/npDT5lL3hFkfEWaN7vUGcdIImFDtN3sUgCoLp9FvKA0o8m6BM1N4O3z4KDGmV+obtyMDyiiKg8In18LX4bDjCx9c0J0EExmMmh5eKB6ndbKpYZ7cw1mU57Gpi/Whkmd4+ZYepX/SUHeZ6QEopkPNh5azsTvnoIPBQPJGJZE1ydUwKgWcovIAE4t3lmqpD8AW165l494PKW9gm7Qa9OdpAghAJ3yNPw2Qw7wuaxl6Kk+JxRgVKTlndYd4HT9oEKHm3bK1ZB1zfyxxyqS68iQK85JLONwuPC2uCxSfNB8JMJ87gXqUA5cwkuzvW6W5gk7yN39HYfkOpzj1PDVsCta/NADdJ9aeg5sH8IwMJehEKlp7TBLBZKf3Ko6BKcE2bQ0ngq3bbfydC8gbeToP//Gez6pfEBNllbGvvWN0GEKpIXNWlzuUuI0O8l7o41J2ccYWV9xO1qwE2HwhnNQGG/5dGHP0KXPMkP7tsZzgqhroIX4RECnHIuBq1XnMjLm5E/U+QIy/pQiHRsEuDrGc59oPuR5ePefDnLDY1OjqMm3dR8/V2QkuOvCK+ucrpBzFkK+z2eSOSNolCIdwCfQQTppp6sv8vsd9sR0G4XqL4pqDJKKgBMydrKDz4rx9MjZRR4tD1cFiCNNNOvOmwSHJecALjiwx+V9eHQmX4MLXghyrVqaOzfioEXvpAuvs+MgXcm5fYleK86xlkYBEkjU54Ld2ngxEzfsvJ8UTj0A0BAgEErgw29E+2GVStBpY1NZUil6+WyBUjzVd7E7UeYOdsgJcBs/0BsxTDSTbEoIUbwsv9J92Th79nPAaWPDjsPmloKfZRa+egncKWqTieTipDh2gGDkzm+wqjC5MAtDuzJnUd5MwmH0a9Kz8r59fm6moxhtBpqG0VJ8bsC0tA8+kxDHUChMUsc0H1nzKV2oA9TUxo2Gc56FRasq8prabLeuvnLKQl8YAoYSwJQzdt7haeyjQOVK8KLp5hAQVukVFNVgvzPx+Z+lUASHngRMFZWQyMmkLGJGpI+8JnNjOmzhkXwe+Esqe7CdypFkUyaChwj/mQ1OG4yeZucUSksfNi5sF8DbzFRYY38ha/gnNcTF/pQfHofAadIALQvPOdWzAhr/oV2EsABmT1vUgHso+0ORnWXm/VI9O4vhrwMXCwBUDbo3cANuX4Rlu1bPwoAS+XAKk5dH+yP1YnVVX2v3tP2NlVfNgtYSDzTATz9OVz8VqZvWX1+vQIZ6vkS4EH3NLA6krA7k0Q3rAF71wUV0ZPXt/YWJgZo802gQgUj8ak8AUUq6mfVWli4wiCWyXkzZb5JjvlmNvyxJuxRRt+eVJ6XusCOlqu+Sfc/tjf835zo5xigB5VIugJ4KmX6lC9ACHGW2RVgCu4ilie3dlU4uBG0aQKHNIZta4Zn65ZgjJsFo6fBcAdJetoCU992hRJJE0pKCFKmV8c97Or92kie+QKuHpps/gCCQhYUwJCUAOziBsVZgEcNvmqE+qAd7sgdzILftwEI4DVqZDOhR/z0m0GR+3wGCFl6/JzEwPwVMVZQ54KKvNopeGEr3CH1RXWCtu+TuLTH0hbcBmVSKwFKV048QtwuW5tYFu342vltJHSUxsFVa2DeMvh6Njz2Cbz3Y/wWD+1mtx5mCl3YwPksyRfV/+02EHSvSjhNBgQGv6q49/dJ3YqTOnABX6mAg0r52CjklgkfdDKo1tgdo+HbufEUgNad5rSmoIo5Sne0TcL82f1hc4/KAuoHnK1xFheAk52wiFeTNnihPByxI1xzMLTZ3h6CmR8+KLH+ncnw3Bh4/0dzsbZFAgh+9HhoVNNWj//rR/NW2aO+X9nv22ePZzo18YoQiooLgKBllR9sCSQv/dC1+M920vbuOBKUzJINpIvgguXw+ni48V1zYY6aOu8Jj5/gDxYy6NgU8fnWRJPwvuiPoK1ZeV8KWkNgdkkB0H9/DrS0Mow0neiiK9wa5a5WrZyEEWU+hqkLjDd0zMxo9GKpPSfuBk93gK1jwvZbtMKUmBoliOXsoLHF77olI0Cvdv0BsU5FTirhfN53TPYufjFQu6N8Ck98ZsqCLpf1OSQSj87dF2493Pg94iDN794P4LaRoHtQltCtruO3aLglBWB3p2jeOCDWPVc7v9DdhFycCyQv8/DJBnIljILcmzm5zDJ1apOI0yAwcorB+lTlxywhKaRtXE2nVAGQI2y0ayKKZU61N4e3z4ZW28bSfWSd6m6g0qBXDA6GjiBrmNAturW0b+dPMUc7/4zF0LYPTExGsTuv301lUI4H1gE0ljwBtPM/DpwfV1zQ7Ycb5AavkIZeZ56E57RwRkyFfw6CKcLjy4BkEGjdxEAZCu3OFp5/aUOUKnf5IGP1yQKb/zq5dS6/vdyqqOuMtaVlgXV1y6Zav1YJxEp4NXEe6xmsSV+PSgiEP6SyTD8s8taEFvtFLeG61vHp+8VH2ncsXPy2CSDMIhIo4z/cyOd1wy5NAJQ3NAhoZHtyD7aFqw+23av9/iQEKhaniMlZ5YBwaddX/TNddLu2iHfXF5ekxn36MxzxLPxp0ccR0hdS+MPhDoL+egWaShMABc8OdJPlQ+o7fTMy443qaqdWlRagnFTCAF32pwmHXr3WhFVsXsnUFtDvKEljGD4FLhwIM0sRAgF3nd8cLmwFOyUgRFHjFbT5ua9nrr5FyccM2v7QCfc5AlgvtresRHh5yuQutkaHNoGXT43G8qOPJ4QC7V5fzISvfjGV4RXPs/ovY8LT7qZ7h4LJFEcj+MDWjY0vQuBZUQTaqc/3fzB4pMUTx8ULWXma1Td4plH0nemHXbjcWHz++1P8MU+Zjt19vltJ9Uf/vywB2NS9KVuqHQLn7AuPHR+e3V+LXiHLWuwKVhsyyV9cv/TvdrvClQeZMqzamcO8oEv4nvocbh8F1SsbdefUpga2MSkkb3bXAfDat0kZUcbjWOh6fzfwVZcHhSKHQfeMu/L5goLc7jkaKoaEWKYd/5qhIMjzMBJa5Jk+cDsjqB32MIIQFukyqXyDfepB/YSFfPyyBG4YDi9+HdZsY2nnXify86bSei5PAHZ0QHO/AKyEV91xBNx2eHjHvdLyZG6UihMmCWl6/21N7I3tbKsw5+GlLQW5yW/RZ1z4fPTSf0jPyNZ2pGP/LzVUrzwBqOomDitbLHLQLDl3bjksPAFQfMpr40NiYSnNKOT42Q7QfleolCB1JawZy9bffRQ8IOyE7CXl/gr18DzHBCo1aAMqb2Hrbxe4uKGR+wRuPhS6hwjb98CHcP2waL/cllXgghZwfZtwVaJoR52+dXl57xwFvRU2lt0k279yf59RaFamAqDnFZAw0jkJdoqaD1ccCPcfG95uOnMxnNDPZGxFSUo7bLsLPNvRTrXFKOeitoWQff4AU80li7y8ZbFFX7+VE9lQJjqpF9XmHuDGqBl/5j7wxIkgHTss+v5XcxFW/q5s/mF/UFmIZK2pUgm6tTClmNKVYQprbmG3I5OsKrmoQMh7P4TdemztPQJcWV7vXgSgPiAbQKQm0cO3NzAe24QcASqMyrG/wGc/w/i58MNCE4ymFL7lHl358sgqPGOrKmZ89baABjVM9lUj/a4FjWsa51kSbPaZLjeZYhWjdNPwxMOZZDI1RVs1K2/3V2NeBEDPRW4SlbNpxPkGxycK0g4nq0YK0kSmR50KwrFZstL4DFauNi5++RAEtyKkia2qmnAE7eza7eUk07+168tplo0LviR/ZSq+9h2Tu5BQIFs/S0Kay83pXvQqAEqX/CzK+CDlYY7uZvJ+CxQ9B1Le8Qc/hnvfj74/yz385Jo+0+apeRUAxQfJKaaMsciA9i4/EB5pb5lVedqdVMLuo00qY9h3o5hZqliffzvazZ3O3TVtRrZXAdCc9gGE+BhZqopUjZ+ujwfTJuaPZq17qXlPfA4Pf5xzKk+Kh9L9j3LvrWn5mokAqLEewGUZ3B3SDqDkAz1PMhaVXNCtM558hC/ooqvQ6xuGwYAJObfrpzinK4wgPpXQ5YkyFQAV0/jALavkqYNMH9q1NozuCnUL9WoyZV2pz6cS8/t/Y8rACqkih0mIb8r5net1jpkKgNpVTuWAqO4Cciw91BYubmWQnAsUjAP/nW6C2YRnujILUa4zmL2M2ue44TueX/MjANqbX3P1LD/vpx2yiShvAAAJ20lEQVRc07rw2um5H2yWlhE+H9Cldvoi+M9H0HOMz0ay6zWpPu8CZwHzMxm63wV8EvAsEJHV3hR0690pXM9wJozJxmel538zx6DSvTLeIFnnCQnuXFifMtJk5MrwKwAKWOiZAhiNgsnyvp7X3IQd52K0Zdg8m7/c2PPfnGggS+T4yyOSSn6GF7NnSZ74FQC1o9AI4azUjYrRug/cdST888CCabQsHits+cnP4O73jGc7D0nIRII691WPMogAiNcnAi84cIrKHYiElHl1SSu4oU1uw6X4ZZ5COpSwcuuIrIEm9zvV0t6T6nNRphff4g0FFYAqriqkcjOR2Wwqb2zAoJ460QShFWh9Dijgb+Q0uGBg+TArOcY3KXmCOJdfaqnfuQUVAPXrAJjzijOYHfwOwut7zRuYgs/N6hVUopI8k73/k5/hkjdNedK1uX8HEJT/CS6WrdcltMFzYQiAGj3VCZHoDYSYKl76nFQA7pS94KJWphKkktUL9D8OKBHouS9NNld5oFtZzjPddi4E+gadR1gCoKxYBR+VmnkfdJAl31eYxLbVjalUaBJh5xCEPV7b7Qn0S8X7enxi0Bxy8DB4GLiuJMiVHz6HJQDqW+gRssMeFOV9oOQkdSJc2xq67GUEQUkpYeL2+GFqunfkqJL1RvkJMlcq7COqMSsr7v4PDOxKUd7DmmBY/hqnMuFK/ugk1o/+LhN25YqmH3mflXikVMsQTLOS5Y+BLs4JEEol4jAFQN9dyJ59HFS5JukWQdh/V4L6QY0MmpsQ1ZrWS06iunbk2Utg2kLzo3icCfOMrq6kmhe7GKiVqAIAtfCkGk2Ya2AN5SeYu8wkAQkdr+QJoTEJJrIoAaiiwWrSxiKLXNVNjDVOqBj67+rub21ESiJSwlAqUSgFTqbCgUpN1R0lICnHV4tfQhAKhS0AgrWSaVTF9kKCuMpsnrIY1awCqjMggTi4sVlc29aIboEVH6F2PS22yQvg+3nw1Wyz0BevhN/18+f6QF36AAc2gpdOMQW+oyYtSuGgCixMJ9FfpeAmSRCLdnLt6u6/JQR+M+CEvXr5YOgplCn/pJHK2aW1FRraU9gCkJqeUihvASKGmPXGTU1S1Wb2qmN+9qhjFlvdLUx6oz60ntGHX7cL//2/nVE7qBaOfutHDqdfl5l0SqUR6rKpXVU/Wvh+SiEJ+3/A6QZZIqqTwBu3wn9q6Uro0h+GKVbTH6kGjZJctKZCpagEQDhCyh2QxCZCCMrimgrw6VjXkV+k125shCG12LWja6fULqZ8Yem02kGjoDZNTOjHbrVzSwg+mg7H9zV3EB+kGFYBNV/jFLcIPbopKgHQPIUm0d+9F/iYd/69IrVDd5henQwidS6QLr+texpEDp8kSEOF4MvuHzpFKQApIRAuuy7FUfcVOnPialBJQW+cYeoCZKufI5V03+0NGDjRFyd1N1dye+t00Ca+WndfsrEom7oOC1WesdFfEH4k5l0VBv/X0cbXsVlkMATRTVe4S1cPhde/NcVIMiQtfoGxy9ml2tWRkY0FqT6EzqtczXqRzSQHGxYukULCJQgyL2YLCXzsvAEGjMwnOrcQnWXuVMXS0Cw+pfHPhgCk+m3rBi8VwtkyXMmKfRL2qKxXChFPKsmnMHKqqYesCjw+SQWjlNoop2rkZFMANBkJgcqwWi/AFzknI+6gfjU4dW84q5kRhCSZSqXvT/wVeo2Bfl/Bog3qsHhmjnR+YU+pRp0Vsi0ACl1TOuWTzo8QJgqUAQfklBIe6TnN4bL9ocZmGbwc0aPKR3j8UxOAJy93gHAH7fyCM3k7jBgfr9O1LQCpcR3nXoyVUxzXGLzyKJHPyYmnusEq16QKmwpZsHEqaLfXol+4wpR6VR2G6cGs87rwqgUtfitqT/EPGufiO8RVh/YoCIF/GVNUbCrco0VD2G2b8Eu8atHL6y1bvuJ6xs4ycT2qHxYw0jRl7ZGTS3UorFOcAqC+W7rl63ezPvMc61DRl1tXga2rmtgnxRftUxe23zIzUAEtdtVOVu1iBeyNm2WKjPy82JSalWPLp2WnNI5PB5RNKPCWSK09ZX3uOAUgNaYG7qVH2KM5WG0rXklTeIdqHsuvILVJUZ1C2dBCV4iH0ikVrjxvGQhZQjv9guWBd/Z0k1Z4gyq4KXCyzOot6RoJ4+9JEADNQxfi+9zMssizysJgXKEN3xxQYNtLbs2JSMIbMhlZUgRAY1Yw8D+co/C2uEKpM2Fc4VlfHJCao43uwSgC2/yMKEkCkBq/Ep2fcPGGChm/fr5q8t7RZVfJLNe6AZKJGWESBaAoR8Q9IhVCkcQxJuYDZsFAtPgVEKkckU/juuwm+RJc1ti2cTFfZCIr3AuyYKWXMkRlADwGKIk9lBzesNmQ9N1VKpCSaoQ4sV3hNAj780fWXkrlUXld5YQkFpg96QKQ+kLCflTF705O5fqQC6lGtgjytWHBFSqcQbu+klkSTdkiAGKiFr4yg+51nGcNE83V/B2cAGqvctACBweBK7TJvmwSgBRfdDeQXnmskyit3ONsnIPNbxx1X1J3lruhDJcmVdfPxktweR9O6SE6Dc516hcfXfAgR73Gy2xfuv17TqLTM8BQwF/ae2zDz+7dUzu/okkPdeqV/csF5y2cBnYWk3Z9FaFW7egRblmigHFxdgZespdcWTCqZC8Psi7J8igXYoqiWU/a8RcDg4CbM6nGGM1wgreaKwKQ4oQS75VLKkHYKTh7Ci0U48CPLgy+yhF9nSucyTUB0HdR/TJhEinMVrFFhcyzYKtVVRdVD06Yr7P81OEK1n20b+eiABTnmARBFUTkTNvKFY5cn3PQFSNdXvj7C10czoeiAqUKOtAw3s+XxaBCfu1ci5Ey0VTgr0AbckCLXsjL7zjJSsPcHT+n+ZQvAqCPqLkKkkUJOLojKAdVJ0SBQJUWpea8CcxwQ5Wz0qqT6cfMJwEoyRuB9nZ0drmuwO5ANTfoLtd5klJxhNwj0EKVGVK8jhJV8o5y/WN7+aAyme7o5icfADQHlKOsy3QukfR6AZQr/1Zwg0Lrn5TkQDUbzC8IwPpcVtlXOdd0ZzjKWSyCb2mRxRlqysBSQJqC0wQzqBTEBU59rRU2Flc29FEQgPRfSRdmIdodBrRyohyrA4Kk0gmhkIy4eSiVRg4qhSEIk02qjXZ5wYzIS6tMrAKVwYG4P162fRjdG1QPeXs3InVb97eiU3W5lrBEGaCnxa7dW7Z57eZCVFDlLdnndXlVeMIPuWarj3KRFAQgGHd1f5DapEWv38pck6VJyTsSDjnhpFKlfhSmodNDz6V+awTavVM7uHZxhRvIJCl1RUjJWvDCzUxZaPSsBEFRmPqd2ISTYOyN/u3/B8m7UBM3Z1SAAAAAAElFTkSuQmCC;" vertex="1" parent="1">
          <mxGeometry x="90" y="330" width="192" height="192" as="geometry" />
        </mxCell>
      </root>
    </mxGraphModel>
  </diagram>
  <diagram id="gPV-8Q8K998yE84V2Egv" name="512">
    <mxGraphModel dx="1017" dy="708" grid="1" gridSize="10" guides="1" tooltips="1" connect="1" arrows="1" fold="1" page="1" pageScale="1" pageWidth="1169" pageHeight="827" math="0" shadow="0">
      <root>
        <mxCell id="0" />
        <mxCell id="1" parent="0" />
        <mxCell id="M8ubkw4OGCiXuJcPWHw--1" value="" style="shape=image;aspect=fixed;image=data:image/png,iVBORw0KGgoAAAANSUhEUgAAAgAAAAIACAYAAAD0eNT6AAAAAXNSR0IArs4c6QAAIABJREFUeF7snQe4FMXShl/JICACAoKKqKCAAQwIGDASVBRzzl4VcxZzwJwwghjBiFlMIGZUEO+PIgoqoiJeBQVJIjn8W+yigOdwZncn9Mx89Tz7nKN0d1W9PWenpqe7ag0kIiACcSBQBVgn96kL2Mf+e8WftYHKQMUyPpVy/25tTeYDC4EFuZ/2e2kfazsNmApMWc3PeXGAKhtFIM0E1kiz8/JdBBwhYDfyDYHGuc/y3xuucIOv5oitXs2Ys0KA8CvwEzAh93P57xZASERABCIioAAgIvBSmxoC9je2bik3eLvRbwDE7ebu1+T9BUxcJTCw4GB5gDAJWOqXMo0jAiKwMgEFALoiRMA/ArYcv8Uqn5ZAdf9UpGqk2cAY4MtVPvb6QSICIlAkAQUARQJU91QSsHfnm5dws2+QShrhOz25hKDgq9xehvCtkUYRiCkBBQAxnTiZHSoBexffLvdpD2yd22wXqhFStloCtjlxJDAcGJb7aa8QJCIgAqUQUACgS0MEViZQAWi1ws3ebvy2OU8SPwK2l2DFgGAUsCh+bshiEQiGgAKAYLhq1PgQsCNxOwJ7APZ0v12KN+XFZ9YKs9ROJvw3t0LwFvBx7uhjYaOplwjEnIACgJhPoMwviMCmmSfDTpkbQUdgF2DNgkZRp7gTsFMI7wEWDLwJfBt3h2S/CORDQAFAPrTUNq4EagG75274duPXkn5cZzJYu+2VgQUCQ4B3gBnBqtPoIhAtAQUA0fKX9mAIlAfaZJZ498w96dvv9m5fIgJeCdhegU9XCAjs1cFir53VTgTiQEABQBxmSTZ6IWA3eHuPfyDQLZdBz0s/tREBLwQs98BLwHO51wbaTOiFmto4TUABgNPTI+PKIGA57+09vt309wMsF75EBIImYLUQLBh4PveqwOomSEQgdgQUAMRuylJvsO3a7wwcAOwLrJ16IgIQJYHpwMDcysDbOlUQ5VRId74EFADkS0ztoyBgmfe65J70uwJrRWGEdIpAGQRm5oIBWxmwjYSWnEgiAs4SUADg7NTIsMyXaWvgxMzxrMO1vK/rIWYE7DXBk8BDmdWq0TGzXeamhIACgJRMdIzctKf7I4CTcil3Y2S6TBWBEgnYCYJHgacAWyWQiIATBBQAODENMgLYOfe0f5Ay8el6SCgBy0RorwceBoYm1Ee5FSMCCgBiNFkJNLU+cGzuxt8sgf7JJREojcC4XCDQH/hNmEQgCgIKAKKgLp2Wle90YB/AjvJJRCCtBOwI4atA79yRwrRykN8REFAAEAH0lKq043u2me/czBnqrVLKQG6LwOoIfJE54dILeFrHCXWhhEFAAUAYlNOto15mibM7cCrQIN0o5L0IeCIwKbcicD9gGQglIhAIAQUAgWDVoJnEKC1zT/tHAlVERAREIG8C84AngDuBMXn3VgcRKIOAAgBdIn4TsGp7tsxvKXp1fflNV+OlkcDSXGIhez1g1QolIuALAX1B+4Ix9YNYIR570r8w9+SfeiACIAIBEfgKuDWXU0AFiQKCnJZhFQCkZaaD8dPK7h4FXJ5ZqtwkGBUaVQREoAQC32VW2K4BBqhMsa6PQgkoACiUXLr72Y3/sMwXzxWZHcubphuFvBeBSAl8A1ynQCDSOYitcgUAsZ26SAzXjT8S7FIqAmUSWB4I2BHCJWW2VgMR0CYtXQMeCZTL7EI+OLfkqCd+j9DUTAQiIGCnBXrmyhMrEIhgAuKkUisAcZqt8G1dfuO3pX471icRARGIB4HlgcCzgJ0ikIjAvwgoANBFURqBLrndxrrx6xoRgfgSsFLEPYBB8XVBlgdFQAFAUGTjO24L4DbAAgCJCIhAMghYAHABMDYZ7sgLPwgoAPCDYjLGWAe4Fjgps6vYzvVLREAEkkXA8gY8mNkkeKVSDCdrYgv1RgFAoeSS08+K9FhlvqsyhUjWSo5b8kQERKAUAjNyGwXvA+aLUnoJKABI79yb5wfk3vNvlG4M8l4EUkngh1z2zhdT6b2cVq72lF4D2wB3ADun1H+5LQIi8A+B94HzgM8FJV0EtAKQrvmum3viPybzvt+O+ElEQAREwAhYzoDHcisCKkGckmtCAUBKJho4HrgFsCBAIgIiIAIlEbCbv1XztDLEkoQTUACQ8AnOFem5H9g9+a7KQxEQAZ8IvAOcmin2Nd6n8TSMgwQUADg4KT6ZZLv77dyvZfGr4tOYGkYERCA9BOblTgtY+eGF6XE7PZ4qAEjmXLfPnfe1pD4SERABESiGgGUT7A4MK2YQ9XWPgAIA9+akGIvsHP9NwMna5FcMRvUVARFYhYBtEnwgl1Z4pugkg4ACgGTMo3lxaO5oX8PkuCRPREAEHCPwK3AmoNwBjk1MIeYoACiEmlt96gCPAPu6ZZasEQERSDCBgcCJmWDgjwT7mHjXFADEe4o7Ao9mlub01B/veZT1IhBHArYaYMeLh8TReNmMMgHG9CKwXf03AmfpXX9MZ1Bmi0AyCNjegLszNQUuyewPsFMDkhgR0ApAjCYrZ2qrXJKOlvEzXRaLgAgklMCYTM6Ao4BRCfUvkW4pAIjPtFrqXsvXfV3m6b9yfMyWpSIgAikhYJUFL8tUFe2VSy2cErfj66YCgHjMXaNcnu7d4mGurBQBEUgxgXcBqzfyS4oZxMJ1BQDuT9NhQG9gbfdNlYUiIAIisIzAdOA0YIB4uEtAAYC7c7MmYDn87b2aRAREQATiSODxXBbBv+JofNJtVgDg5gxvkku0sYWb5skqERABEfBM4EvgABUW8swrtIYKAEJD7VlR19z7/lqee6ihCIiACLhNwF4JHAu86raZ6bJOAYA78227/Hvmcm3b7xIREAERSBIByxlwbe57zn6XRExAAUDEE5BTXxt4EujshjmyQgREQAQCIzAIOFpphAPj63lgBQCeUQXWsHXuff+GgWnQwCIgAiLgFoEJwP5KHBTtpCgAiJa/RcG2079atGZIuwiIgAiETmBO7qhg/9A1S+EyAgoAorkQKmXO9d8FnBqNemkVAREQAWcI3AucDyxwxqKUGKIAIPyJtoQ+thN2h/BVS6MIiIAIOEngY8BOQNlpAUlIBBQAhAQ6p6Yp8BrQLFy10iYCIiACzhMYB+wDfOe8pQkxUAFAeBO5IzAwUzrTdvxLREAEREAE/k1gSi5p0EeCEzwBBQDBMzYNls+/n6r4hQNbWkRABGJNwKoKHqc6AsHPoQKA4Bn3AG7QhsvgQUuDCIhAYggszWwKvBS4KTEeOeiIAoDgJqUi8GAu/WVwWjSyCARAoPwaUKPyP5+alaF6ZVj+s1J5qFAOKuZ+Lv/d/ttkwSJYtAQWLoFFi//5ff4imD0fZs2HP1f42H//tQCW2Ne+RAT+IfBI7rTUQkHxn4ACAP+Z2ohr5ZL77BbM8BpVBAonYDfvjWpDk7Wh0VrQsCY0ss9auZ81oe6asEbI3w6Ll8Afc+C32dnP77mfU2bD5D9h/B/Zz6Q/C/ddPWNJ4C3gYGBmLK132OiQ/8QdJuGfaU1yO/1b+DekRhKB/AnYTb55PWhaFzapA03rwCZ1oXEtKB/jahO2cvDdVPjOAoKp8O0U+Pp3GPs7zNFzYv4XSjx6WEXBvYGf42FuPKxUAODvPG0NvJ7J7tfA32E1mgiUTqBBddi8AWxeP/ezAbSsl12yT5PY64Mfp8GY31b+fD0F7NWDJPYEJueCgM9i74kjDigA8G8i2gJvZDL8WaIfiQgEQqBiOWjdCNo3hvYbZH/a0r2kdAK2B2HUJPj4Jxg2Ifvzl1kiFlMClihor0zhtE9iar9TZisA8Gc6dgVeAar7M5xGEYEsgcrlYacmsPvGsMOGsO16UNW2l0qKIvD9H/DOeHj3++xnyl9FDafO4RKYDewLvBeu2uRpUwBQ/Jx2AZ5XQZ/iQWqELAFbyt+zKXRqlr35V9MNP9BLY+lS+HIyvGPBwHj44MfsCQWJ0wSskNBBgJUWlhRIQAFAgeBy3Wxn6hOZc/5W3EciAgURsCN0OzeBbi1gv5awQa2ChlEnnwgsXAzv/wAvj4GXx8Kvel3gE1nfh7HiQYfnTlz5PngaBlQAUPgsHwlYGcvcyefCB1LP9BGwp3p7wt+vBXRtDrVVENrJi8A2Fv73Z3hpTPYzbqqTZqbZKNveaVkDn0wzhEJ9VwBQGLnugJWwjPFhqsIcV6/CCVSpAAdsDodsAXs209J+4SSj6znqV3jsM3hqVDZXgcQJAksA+05+wAlrYmSEAoD8J+sc4A6l9s0fXFp72G79Y7eBQ7eCtaqklUKy/LYsh0PGweOfZ18VzNMxw6gn2HJIngfcGbUhcdKvACC/2boq0/zq/LqodRoJWCa9E7bNfjZdJ40E0uPzjLnQbyT0+USvCByY9Sszr2V7OmBHLExQAOB9mnTz984qtS3brAent4dDtgRb8pekh4CdJrCjhb0/gVfGwmLVNYhq8u0h7ZqolMdJrwIAb7N1bm7Z31trtUoVATurf9hWcHo72G79VLkuZ0sh8PMMuH9EdlVg+lxhioDABcDtEeiNlUoFAGVP1ylAH73zLxtU2lrUrw5n7wD/aZMtniMRgVUJWD6BviOg10c6Thjy1WHrL6dl0rLfH7LeWKlTALD66bKjfo9pt3+srunAjV1/LbhwZzipjbLyBQ47IQqsFoGdHrjlg2xFQ0koBOx0wLG5XC2hKIybEgUApc/YAcCzOucft0s6OHutot7FHeCYraGS3u8HBzrBI1vJ4xe+gqvfzlYwlAROwM5nHAa8ELimGCpQAFDypHUGXrZU7DGcU5nsM4H11oKrdofjtgXL2icRgWIJWCDQfyRc9Tb8T1Xui8VZVn9L7Gy1A4aU1TBt/64A4N8zvkuuql/VtF0M8ndlAnWqwSW7ZDf3VVE+fl0eARCYtxDuHQ43vgfTtFkwAMJ/D2nlnvYB3g9SSdzGVgCw8oy1Ad7O7B6tEbeJlL3+EbA0vefuCBfvAjW0BuQfWI1UKoGZ8+CG9+DOj2DBYoEKiIBVddgD+G9A48duWAUA/0xZq1x5SZViid1l7I/B5daAU7bPLvfXVwjoD1SNkheBb6fAWa/AkO/y6qbG3gnYFszdgS+8d0luSwUA2bndABiROTLSILlTLc9WR8DS9d7bDVo3FCcRiJ7Ai1/Bua/BxBnR25JACyYBbYGJCfQtL5cUAEBNYCiwVV7k1DgRBOws/02ds7n619BfQyLmNClOzFkAPd+F24aC1R6Q+EpgNLBTpn5Aqos9p/0rz7Z2vQ7s6eulpcGcJ2AXfve2cGNnqKkCPc7PV5oNHPkLnPAcjJ6cZgqB+P5WZj/A3sDCQEaPwaBpDwAezdWSjsFUyUS/CDSrCw8dCDs18WtEjSMCwRKwjYE3vQ/XvQMLtRrgJ+wHgZP9HDBOY6U5ALgYuClOkyVbiyNQvhxckFn0u3oPHesrjqR6R0Vg9CQ44XmwVQGJbwQuSeu9IK0BgGWGelIpfn37A3J+oK3WhYcPhG3Wc95UGSgCqyWwcDFcMQRuGQpWgVBSNAFbUzk8l/m16MHiNEAaA4B2ueN+OuEdpyu1QFvLrwFX7QE9doGK5QscRN1EwEECb4+HY56BSX86aFz8TJqTOx74SfxML9zitAUAmwDDgHUKR6aecSHQZG148jBo1zguFstOEciPwNS/4JhnYdC3+fVT6xIJTMkdD/whLXzSFACsnTvr3zQtk5tmPw/bCvrurx3+ab4G0uK7vQa462O4eJCyCPow518DOwDTfRjL+SHSEgBUyhWC6OD8jMjAogisWQnu2y97rl8iAmki8MlE2P8xmDw7TV4H4usHQCfAigglWtISANwNnJnomZRz2Ea/546EpnUFQwTSScAqC+7/OPzf/9Lpv49e3wOc5eN4Tg6VhgDAdvw/7SR9GeUbgUO2gEcPhmq21iMRgRQTsAqDxz8PA5Ttvtir4Iik3zuSHgC0BD4FqhV7Jai/mwSsgM8tXeC8nZTK180ZklVRELB9ATd/AJe+qaOCRfC3EsLbA2OKGMPprkkOANbKlX3Upj+nL8HCjVu7KjxzBOypGS4conommoAVFTpiAMxflGg3g3TO6jJamfhElmVKagBgfr0IdAvyytDY0RHYsgG8fAw0qR2dDdIsAnEg8NEE2K8/TJsbB2udtPFl4AAgcWmXkhoAXApc7+SlJKOKJmBP/C8cBTWUyqlolhogHQS++R26PAoTUnG4LZA5vQy4IZCRIxw0iQHA7sCbgPK+RXhhBaX62K3hwQOV1S8ovho3uQR++zMbBHz+a3J9DNCzxbmjge8EqCP0oZMWAGwAfAbUCZ2kFAZO4Jo94YrdtNkvcNBSkFgCs+fDfo/Bu98n1sUgHZsKWIaRiUEqCXPsJAUAtiBsCRxs16YkQQQqlIMHDoDjt02QU3JFBCIiYMcE9+0Pb42PyIB4q7VTZTsCC+PtRtb6JAUAvYHuSZgU+fAPgaoV4aWjoVMzUREBEfCLgAUBljBo8Di/RkzVOIlJEpSUAGA/4KWEBTSp+osqyVm7+b9+HOy6cepRCIAI+E7AjgYe+AS8/o3vQyd9QDsNsD8wMO6OJiEAaJCZDMt5VS/ukyH7/yFQrSK8cTx02EhUREAEgiKwYBEc/CS8YiVwJPkQ+D3z0LkVMDmfTq61jXsAYPa/AXR2DazsKZyAFfQZfDzs2KTwMdRTBETAG4EFi+HgJxQEeKO1UqvBmQqzXQro50yXuAcAZwN3OkNThhRNwM72Dz4B2jcueigNIAIi4JHAvEWw+4Mw7CePHdRsOQErGGR7AmIpcQ4Atsw8+X8CVI0leRn9LwJVKsCbJ8DOWvbX1SECoROYPhd2uh/G/Ba66jgrtPyKdj5pbBydiGsAUCWz9DIik+7XggBJAgiUL5fd7d+1eQKckQsiEFMCv8yE9n1gYiIz3wc2KaOB7YAFgWkIaOC4BgC27G/L/5KEEHjsEDh664Q4IzdEIMYExv4GO94PtiIg8UzgduACz60daRjHAMA2/L0OlHOEocwokkCvfeAcS60hEQERcILA8J9g94dgbiLS3YSCdAmwJ/BuKNp8UhK3AKBu7shfQ5/81zARE7ioA9wc6320EQOUehEIiMALX8FBTwQ0eDKHtSoLm2dWp2NTciluAYCVZbSkP5IEEDh4C3jmCOX2T8BUyoWEErh0MNz4fkKdC8YtK0N/YDBD+z9qnAKAQ4EB/iPQiFEQ2LohfNgdLOGPxA0Clhlu0iyY9CdMng2/z4Y/5sDMudla8tPmwIx5YEfGFi4GOz++7LMoG8TVrAxrVoYalbKlmqvnfrefDWvCxrVhozrQuJaqObox42VbsXgJ7NNPKYPLJrVSi0OA5/LsE0nzuAQAawGWsNKy/kliTqBedRh5JqxnsyoJlYB9of84LXvU66vfwDZ82U/b9W039zCk/BqwQS3YKBcQtKgHO24IrRqCFX6SuEVgxlzY9h74fppbdjlsjWUHtPNMzp+liEsA0CeTcvFUhydcpnkkULk8fHAKbG+FmyWBErAn9a8mZ+u/j/o1+/OLSTDH0Y1d1StlE0Dt3AR2agJt1gfLDSGJnoBdR23vg78cvXaiJ/QvC+6PQ3G6OAQAuwDvaNe/g5d4ASY9fggcpeN+BZAru4st4X8yMVvr/b3vYcTP2SX6uIq9HrK8EIdsCV02BSsOJYmOwGMj4dhYLGxHx2gFzXYqwM42DXfCmlKMcD0AqARYkoVNXYYo27wROG8nuH1vb23VyhsBe0//2tfw6tfZ+u5/xS4ViTc/bU/Bfi2ywUCnplBJKwPewPnc6vCnYYCVXpN4IWAllloD8700jqKN6wHAVRkoV0cBRjr9JdBuAxh6ClQo7++4aRzN3tc//QUMHAOf/AxLrThpiqRWFdi/JZzeHrZplCLHHXB11jzY8k74yfm32w7Ayppg969rnLFmFUNcDgBsE8XnQGVX4ckubwRsd/joc6Dx2t7aq9W/CcycB89/CU98Dh/8ACm755d6SezZFHrsArttrKsmLAIf/gi7PABLdBF6QW5P/1Y2+FsvjcNu42oAYHZ9BLQPG4j0+U/ghaPgAEuPIcmLgD3Zv/M9PDAiW6rV3vFLSiaw3XrZQKBbSyjn6rdagibvyiHQM1Y57yKF/x6wOw7G7a7+qZySOfJnuyglMSfQvS307hZzJ0I2f86C7JP+XR/D2N9DVh5zdZuuA1fvAYduqQRTQU7loiWw8/0wfGKQWhI1tp1i6+uaRy4GAHbW3zZP1HINluzJj0DrhjD8NKisDVuewE2ZDb0+gr6fZpPuSAon0GEj6L0ftKhf+BjquXoC46Zk9wPMj/FJkxDn2HZN2GttyxHgjLgYADydSfpzmDOEZEhBBCqVh8/Ogpb6Ai6Tn934bxsK932S3F38ZUIIoIElFTp7h+yKgGUjlPhPQK8C8mL6FHBkXj0CbuxaANAWGJbZNemaXQFPQ/KGv6ETXLJr8vzy0yPbUX39e3DfcN34/eS66liNamaPn9oRQktZLPGPgCWb2rIXfPeHf2MmeCTbNpkJSd3JDeDan4Pd/Nsl+AJIhWtbN4IRpyuta2mTvWhxdpn/6rdh6l+puCSccNJOCjx6EGyg0yi+zsc742GPh3wdMsmDWWIgZza3uxQA2LK/Lf9LYkygYjn4vzNhy3Vj7ESAplvSngvfgG+mBKhEQ5dKoHZVeOKwbGZBiX8Ejn4mu3FV4omA3eue8dQy4EauBAD2hs6K/WwYsL8aPmAC1+4JV9iBF8lKBP43E7q/nM3aJ4mWgH3p2espu1bLq/iQL5NhGSmb3gqznM1554ubfg0yIbchMKTyW6Wb7UoAcDFwk190NU40BLZskH36r6hsf39PgCVL6TsCLnoDZic0TW80V1vxWnfZCAYcAfWrFz+WRoCb34ceg0XCI4FLXLjnuRAA1MvsjPwOqOkRnJo5SMAupGGnQVtV+ft7dr7/A45/Dj60eF/iJIF1a8AzR2SrD0qKIzBvITS7DX6eWdw4KeltlJoBkWb6cCEAUKnfBFzxx20Djx6cAEd8cqH/SDhjoJ76fcIZ6DB2XLD/IXBEq0DVpGJwu+6PU8VAr3MdecngqAOAlsAoQKlivF4yDrazSm3fXQD1azhoXMgmWc7+k56H578KWbHUFUXAvgjv3Q9O0xmkojguWQKt74HRk4oaJi2dLbm3hZ1jonI46gBgENA5Kuel1x8Cd+wN5+7kz1hxHmX4T3DY02DV+iTxJHBdR7hst3ja7orVQ76DTg+7Yo3zdtiuiS5RWRllAGA3fgsAJDEm0LwejD5bZX4f/i+c9jIsUFrUGF/NWdPP2QHu2EdJg4qZyD0fgrfHFzNCqvravfDNKDyOKgCwwzdfAKoRF8Ws+6jznZNgt018HDBmQy1cDGe/An1GxMxwmbtaAsduDQ8fpGOChV4m7/8Auz5QaO/U9bMXhlYyeEnYnkcVABwKDAjbWenzl8A+m8Grx/k7ZpxG+2MOdHsMPtIu/zhNm2dbbVPg44eqvLBnYKs0bNcbPlG1QK/4IkkOFEUAYE//XwItvJJRO/cI2IUz6uz0Zvz7cRp0eRS+VUY/9y5OHy06vS3cq3LWBRF9ZSzs91hBXdPYaSywRdirAFEEAHr6T8DlbU9HT6a0ZuPIX2CvR8Gyn0mST6BnR7hcGwPznuilS2Gru+BLpwrg5u1GmB1CXwUIOwDQ03+Yl1NAuuzc9Dfnw8Z1AlLg8LBW+MSeav5SVj+HZ8l/0yzYVZ6A/Lk+9Tkc6UTW+/xtj6BH6KsAYQcAevqP4KryW2X37aH3/n6P6v54dvPfpx9YCVRJughUqQDDukPrRunyu1hvFy2BZrfCj9OLHSk1/UNdBQgzALAM8RbhWPpDSUwJVK0I318I66YscbNu/jG9YH00u3Et+O+ZsM6aPg6agqHu/AjOfS0FjvrjYqirAGEGAMdmqv3184eRRomKwAU7w617RaU9Gr26+UfD3UWtnZvBG8crR0A+czNtDjS8AeZr5cwrtiOAp702LqZdWAGAPf1bud8UnxgvZprc6FuxHPzUI11P/x/9CB0fgbkL3ZgDWRE9AUsZfLpSBuc1Ecc8A49/nleXNDe2FErNgcBDprACAD39J+ByPmHbbHKUtMioX6FDX9U4T8t8e/XT9gN8fhZsZnVMJZ4IfDwBdrTSNxKvBCzDSn+vjQttF0YAoKf/QmfHsX5jzoUW9R0zKiBzvpsKO/aB3/8KSIGGjTWB7dfPlr8uF8Y3aKxJ/WP8Fr3gq98S4kzwboSyChDG5Xs0oHQQwV8wgWro2hxesXWcFMjkP6F9H7BkPxIRKI3A/fvDKduLj1cC93wMZ73qtbXaAccAjwdJIowAwN78qNJ2kLMYwtjvnwwdNgpBUcQq5iyAnfuCJfuRiMDqCNSqks2HoTLY3q4TS53d4Dqwo4ESTwRGAa09tSywUdABQMeoqhwVyEPdSiCwbaPs8aeki2UuO+RJeN5Kc0hEwAOBo1pn6wVIvBHY+1F441tvbdVqGYHdgXeDYhF0AGDlfq3UoSTGBPodDMduE2MHPJp+3btwxRCPjdVMBAD7Av3sLGjVUDi8EHhsJBz7nJeWapMjMBjoEhSNIAOAzXKJf4LUERQXjZsjUKMyTL4MqlVKNpIXv4KDnoClyXZT3gVAoGNTePPEAAZO4JCz5kG9njB/cQKdC8Yl+0pqCXwdxPBB3pz7AicHYbTGDI/ASdvBgweGpy8KTeOmwtZ3K79/FOyTovOdk2A3ZTnxNJ0HPg4vjvHUVI2yBOwAZfcgYAQVANhhsZ+AykEYrTHDI/Bxd2jfODx9YWtasAja9obPfw1bs/QliYDtk/n0DGUI9DKnz3wBh4WS586LNbFoY4eRN84EAb4fogwqALgqg/XqWKCVkaUSaFY3u8t5jaCuEgfYn/UK3DPMAUNkQuwJvH0S7K5VgDLncc5CqN8TZquiZpmsVmhg99Nr8umnbefsAAAgAElEQVTgpW0QX+1VgR+BlKSM8YI5nm1u6QIXdoin7V6sfnUs7KsMFV5QqY0HAp2awmDtBfBACg54HF7SawBPrHKN7Onf1mLn59OprLZBBACn5N5ZlKVb/+4wActw9r9Lkpv3384kN78dpijTn8NXYfxMG3U2bLVu/OwO2+K+I+DUl8LWGnt9J2SCgEf99MLvAMDGs7jOChlIYkxg943h7f/E2IEyTD/8aRjwRXL9k2fREDh+W3gkRfUyCqU8cTo0vrnQ3qntZycB7ESAb4eV/A4A7My/nf2XxJzA3V3hzB1i7kQp5mvpP5nz6oJXVSvCpMtgrSouWOO2DbYC980Ut2100DrLCWC5AXwRvwOA14GUVYv3ZR6cG8TK/m5QyzmzijZo5rzs0v+kP4seSgOIQIkEVC7Y24Vx9itwtzbgeoP1T6s3gL3z7VRaez8DAMuFNRGw6n+SGBPYuiGMPCvGDqzG9O4vwf0jkumbvHKDwOb14ctz3bDFZSsGfQt7+fpG22VvfbPNUihtkMmx48vBZT8DgIuBm3xzUwNFRuDaPeEKy0CdMBk9CVrfDUt8e4OWMEByxzcCI8+ErRv5NlwiB7LCW2tdreJABUxuD8CXHRR+BQA2zne5ZAUF+KMuLhH44mzYMmE7ma3QT4e+8OEEl0jLlqQSuHBnuEUvQ8uc3na94RNbN5bkQ+B7oKkfmwH9CgB2Ad7LxwO1dZPAhmvDj7aWkzBR9rGETajj7tj+mQkXJzuJlh9TcN5r0OsjP0ZK3Ri7Au8X67VfAUB/4JhijVH/6AmcvQPc2TV6O/y0YN4iaHor/G+mn6NqLBFYPYGkp9H2Y/5f+BIOetKPkVI3Rr9Muv3ji/XajwDA9opPyrz/18GXYmfDgf4vHg3720nTBMmdH8G5ryXIIbkSCwIX7AS3+rZfOxYu523kpFnQ8Ia8u6kDzAbWB2YUA8OPAECZ/4qZAcf6Tr0C6qzpmFFFmGMbjZrcAr/bn4tEBEIk0LwejD0vRIUxVdXkZpgwPabGR2v2qYBV3S1Y/AgA7FBVm4ItUEdnCLSsD18l7PjSzR9AD6WmcuYaS5shP1wETWqnzev8/D1yADw1Kr8+ar2MwCdAu2JYFBsAtAI+L8YA9XWHwGlt4b5u7thTrCWz58OGN4Pl/ZeIQBQE7tkXzmgfheb46Lx3GJz5SnzsdchSO9DcGig4qXmxAUCvzDuIcxwCIlOKIPD04XDYVkUM4FjX24bChZY3SyICERHYezN47biIlMdE7fCfoH2fmBjrnpl3AgWv2xYTAFQEfgHWcY+JLCqEwK+XJqf638LFsNEt2vlfyHWgPv4RqFkZpl8F5cr5N2bSRpo1L5sQSFIQgd9zmwEXFNK7mABAhX8KIe5on03qwHcXOmpcAWY9+Tkc9UwBHdVFBHwmoKyAZQPd4Eb4Wcd0ywZVcouCCwQVEwA84sc5xEI9Vj9/CRzRCp48zN8xoxxt67vhc1+yZUfphXQngcCd+8DZOybBk+B86PIIDB4X3PgJH9kqKpxQiI+FBgC2/G9n/+sUolR93CNwcxe4qIN7dhVi0dAfoMMDhfRUHxHwn8ABLeGFo/0fN0kjXvg63PZhkjwK1ZepgFWeyPs1QKEBgJb/Q53f4JUNOh46bxq8njA0HP0MPKGzKWGglg4PBBrWhF8u9dAwxU36/R8c/3yKARTvekGvAQoNALT8X/yEOTVCUjYAzpgLDa6H+YucwitjUk7gt8uhXvWUQ1iN+//9GdrcJz5FELA1T0vKl5cUEgBo+T8vxO43rrsmTLnCfTu9WHjfcDhjoJeWaiMC4RF4/TjYa7Pw9MVNkwXua18TN6udstdeAzQAFudjVSEBgJb/8yEcg7Z7bAJvnRQDQz2Y2PouGGW7UyQi4BCBnh3h8t0cMshBU2peBX/Od9Cw+JjUCRiSj7mFBABa/s+HcAzanrcT3J6AoiVfTYYtLC2GRAQcI6CNgGVPyJZ3wpeTy26nFqUSyPs1QL4BQHngN+3+T9Yl2O9gOHab+Pt0xRC47t34+yEPkkegaV0Yd0Hy/PLTo6794LVv/BwxdWPl/Rog3wCgY6b4wJupw5pwh4eeAjs1ib+Tm90O306Jvx/yIHkEyq8Bc66DSvYIJSmRgO3dsT08kqII5PUaIN8AwEoPnlyUeersHIGJPWD9Ws6ZlZdBoyfBVnfl1UWNRSBUAlYa2EoES0omcMsHcLEqdxZ7edyfWaXv7nWQfAIALf97pRqjdhXLw7zroFw+V4KD/l32JtzwnoOGySQRyBF46Wjo1lI4SiPw7Gg49CnxKZKA1QZo6PU0QD5f+20BLdAUOTuudd+4DoxPQA2ALXrBV7Y7RSICjhK4qTNcvIujxjlglqoC+jYJ7YBPvIyWTwBgJ8Wv9TKo2sSHQBKOAP4yE9a7MT7MZWk6CZzcBvoekE7fvXj93VRodpuXlmpTBoErgZ5eKOUTAHycOWPY3sugahMfAidtBw8eGB97S7L0oU/hPy/G2wdZn3wCXTaFN45Pvp+Fejh9DtTWI2ah+FbsNwzYwctAXgOAtQF7t1DBy6BqEx8C13eCS3eNj70lWXrQE/DCV/H2QdYnn8Dm9eHLc5PvZ6EeLl0KFS+FxUsLHUH9cgQsEboV6ptVFhGvAYAtXL1Q1mD69/gRePxQOKp1/OxebvGiJVDnGpilDGLxncSUWL5WFZhxdUqcLdDNdXrC1L8K7KxuKxKwdd0y10W9BgA6/pfQi2vQCdC5WXyd+3gC7GgHXyQiEAMCs66GGlViYGhEJiqXh2/gPWUF9BoATAAa+2aaBnKGwKdnwHbrOWNO3obc/D70GJx3N3UQgUgIfHs+NFsnEtWxULpDHxj2UyxMdd1Iu2eXmd7NSwBgNay+dt1b2VcYge8vgo1qF9bXhV779YdXdHW6MBWywQOBj7tDez1KlUpq3/7wqv6ePVxJnppsCoxbXUsvAcCZwN2e1KlR7AjYO0l7NxlHsU1D9s7wjzlxtF42p5HAwGNg3xZp9Nybz8c9C/0/89ZWrcokcFZmM+A9xQYArwN7lalKDWJHoEI5WHA9rOElDHTQO8v7b+8MJSIQFwIPHwgnbBcXa8O389SXoO+I8PUmVOMbwGrrvJb11W/Phn8A1RIKKNVu1a8Oky+PL4J+I+H45+JrvyxPHwFlA1z9nJ/9KtxtGWckfhCYDdQFSj0jVVYAYIkrlWHdj6lwcIwW9WDMeQ4a5tGkc1+DOz/y2FjNRMABAhd3gJu6OGCIoyZc9AbcOtRR4+JplmV5eb8008sKAJT+N56T7snqHRrDR57rRnkaMtRGuz0A7/0QqkopE4GiCJzWFu7rVtQQie585RDo+W6iXQzbudWmBS4rALDijJ3Dtlj6wiGw+8bw9n/C0RWEltrXwPS5QYysMUUgGALHbA39Dwlm7CSMet27cMWQJHjijA+r3QewugCgXO79f8wrxTszEc4Zstem8HpMc5P/byasrwJAzl1TMmj1BA7cHJ4/SpRKI3DrB3CRPXZK/CIwDbDME0tKGnB1AYAdVhnjlxUaxz0C3VrAS8e4Z5cXi974Bvbu56Wl2oiAOwQ6NYPBJ7hjj2uW3PUxnPOqa1bF3p6WwNh8A4CTAUsBLEkogUO2hGeOiKdztw2FC21xSyICMSIQ9303QaPuPRxOHxi0ltSNfyLwSL4BwMOAYtUEXytHt4bHDo2ng6e9BH10Xjiek5diq7dtBP+11GqSEgnYEUA7CijxlYDd/C0I+Jes7hWAJWS0NMCShBI4cVt46KB4OtfxIXhrfDxtl9XpJdCqIXxu+dkkJRK440M431LPSfwkYMv/9hrAcwBg2eGnAmWdEvDTSI0VMoE4H0na6Bb40ba3SEQgRgS2aACjz4mRwSGbessHcLE2AfpNfTFQD/jXN2ZpN3hL/as4zO9pcGy8c3aAXl0dM8qDOQsXQ9XLYfFSD43VRAQcItC8HoyNcfKtoFHe8B5c9mbQWlI5vqUE/teuqdICgOuBS1OJKUVOn7sj3LFP/Bwe/wc0vTV+dstiEWhaF8ZdIA6lEbjmbbg685H4TuBa4KpVRy0tAHgH2M13EzSgUwTi+gpg6I/QQedTnLqWZIw3AlZ620pwS0omYDd/CwIkvhOw/Iq7ewkAKuTeFdTw3QQN6BSBE7eDhw50yiRPxjw7Gg59ylNTNRIBpwhstg58fb5TJjlljC3/22sAie8E/gQsqd9KCYFKWgFQAiDf2bs54FGt4fEYHgNUshA3rydZVTaBVuvC52eX3S6tLS5+A25RMaCgpv9fCYFKCgAOA54OygKN6w6Bg7eAZ490xx6vllwyGG4qtb6V11HUTgTCJ9B2fRh+evh646LxvNeglyp8BjVdh2eO9g9YcfCSAgBtAAwKv2Pj7tcCXo5hKuDjn4N+Ix2DKXNEwAOBDk3g/VM8NExpk1NehAc+Tanzwbv9r42AJQUALwEqWBn8ZESuoXMzGBTDXI9d+8NrlqZKIgIxI6BaAKufsCOfhqe+iNmkxsfcl4H9y1oB+B7YKD4+ydJCCey6EbxrFR9iJjv3hQ9/jJnRMlcEgLiuuoU1efv1h1cU3AeFe1zm9f6mqwsAqgGzgPJBWaBx3SHQdgMYfpo79ni1pNVd8MUkr63VTgTcIXDoljAgpgW4wqC4+4Pwrj2CSoIgYBkBawJzlg++6iuAtsDwIDRrTPcIbFwHxl/onl1lWdTkZpgwvaxW+ncRcI/AsVtDv0Pcs8sVi7a/Fz79nyvWJNKO7YG/d1msGgDYG2GrAihJAYEalWHWNfFztPY1MH1u/OyWxSJwShu4/wBxKI1Ayztg7O/iEyCB44F+pa0A9AJUqiJA+q4NPacnVK3omlWl27N0KVS8VHUA4jNjsnRFAme1h7v2FZPSCDS+CSbOEJ8ACdwB/J2KatUVACvD0DFA5RraMQI/Xgwbru2YUasxZ/4iqHJ5fOyVpSKwIoGLOsDNXcSkNAJ1roFpWt0L8gIZDPx9Ba4aANjWqgZBatfYbhEYcTq0Wd8tm1Znzez5UONfJS3iY78sTTeB6zvBpbumm0Fp3tvqXqXLYNFKyWrFymcCvwKNlo+5YgBg9YJ/81mZhnOcwCvHQtfmjhu5gnn27t/2AEhEII4EHj4ITtg2jpYHb/PMeZlk9VcHryflGqyIeu3Mq/5lL1pWDAB2Bj5IOZzUuW/FgKwoUFzk99lQ/7q4WCs7RWBlAq8fB3ttJiolEfj+D9hEZb7DuDg6ZKr9Lqu4sGIAcBzwaBjapcMdAj07wuUxKvz8y0xY70Z3+MkSEciHwMgzYeu/F2Dz6Zn8tp9MhHa9k++nAx7+fRJgxQDA3qxqAcaB2QnThGO2hv4xOpf803TY8OYwCUmXCPhH4JdLoaGlYpH8i4Cl97Y035LACdh9ftmL1BUDAHv6t1UASYoItFkPRpwRH4cnTIMmt8THXlkqAssJ2JftguuhgvKslnhRPPp/cMLzul5CIGB5AGwVYKUA4D1glxCUS4VDBGpWhpkx2lT38wzY4CaHAMoUEfBIYJ014fcrPDZOYbNbP4CLBqXQ8fBdtmLqy86irLgCYOVVNgzfFmmMmsCvl8K6MVmWnDQLGt4QNTHpF4H8CWzRAEYrzVqp4HoMgpu1DT3/Cyv/HhOAJisGABUAS79gPyUpI/Def2CXjePhtE4BxGOeZOW/CezZFIacKDKlETjhOXh0pPiEQGA+UBVYunwFwJ78VWA1BPIuqujTDU61MlAxEOUBiMEkycQSCRzdGh47VHBKI9DlERhsBWslYRBYF5i8PACwd/+2B0CSQgLn7gh37BMPx5UKOB7zJCv/TeCineHmvUSmNAKb94IxSkUX1gXSDvhkeQBgFaqfDEuz9LhFYOcm8MEpbtm0OmusGJDShcZnvmRploAF2RZsS0omsNZVMMsWpyVhEDgcGLA8ALgY0N7qMLA7qKNKhWxZ4IoxOZ5k6UItbahEBOJE4I3jocumcbI4PFv/nA81VeMjPODQI7MP4OblAUCfzPuAU8PULl1uERjWHdo1dsum0qxpdAP8OisetspKEVhOIG6VN8OcOVv6t1cAktAI3J+p/dN9eQBgpy87h6ZaipwjcEsXuNAyRMdAWt4BY3+PgaEyUQRyBKpVhNnXwhqr1l8VoWUEBn8LXZSIPsyrYVlZ4OWX4+dAqzC1S5dbBPZtDgOPdcum0qzp0BeG6sxKPCZLVi4jYPn/rQ6ApGQCD34KJ78oOiESGAW0Xh4A/ARsEKJyqXKMQO1qMPWKeDyhHPg4vDjGMYAyRwRWQ+Co1vC4jgCWSujKIdDzXV1CIRKYmCn+13h5AGBJgKqEqFyqHCQw9jxoXs9Bw1Yx6ZQX4YFP3bdTForAcgI3dIJLliVflZRE4LjnoL+SAIV5cdg26qoWANiN3wIAScoJ9NoHzonBMaWr3oJr30n5ZMn9WBF48WjYv2WsTA7V2B37wMe2Di0Jk8CyAMCW/oU+TOyO6tppQxgag7MgD/8XTnrBUYgySwRKIPDN+bDpOkJTGoF6PWHKX+ITMoFGFgDY5j/bBChJOYFya4AVBqpfw20QQ8ZBp0fctlHWicByApXKw5yeUL6cmJREwHJ6WG4PSegElm0CVBrg0Lm7q7Dv/nDy9u7aZ5Z9/Tu0uMNtG2WdCCwn0LI+fHWueJRG4NOfYfv7xCcCArtaAHAI8EwEyqXSQQKdmsHgExw0bAWT5i6ENa+ApW6bKetEYBmBQ7eEAZZsXVIigSc/h6N0B4ri6jjQAgB762uZACUiQIVyMOUKqGXFIh2WJjfDhOkOGyjTRCBHIC6ba6OaMB0BjIp8NhPgJcANkZkgxc4ReOQgOH5b58xaySCVDnV7fmTdPwQ+PQO2W09ESiNwxNPw9BfiEwGBSywAsAzM50SgXCodJbD9+vDJ6Y4alzPrnFfhro/dtlHWiYClAJ55DctW1iQlE9j2Hhj5i+hEQOAOCwAsA/NxESiXSocJuP7UoqOADl88Mu1vArtuBO+eLCClEViyFGpcCXMWilEEBPpZADAQ2DcC5VLpMIFjtob+tj3UUfniV2h1t6PGySwRyBG4bFe4rpNwlEZg3BTY9HbxiYjAyxYAvAl0jMgAqXWUQMXy8MslsE51Nw1ctBhqXAXzFrlpn6wSASMw6HjovKlYlEbgudFwyFPiExGBwRYAvJfLBRCRDVLrKoHrO8Klu7lqHbTvDcOtpIVEBBwkYKV/p18Jazl+oiZKdJe9CTfYHUgSBYF3LQCwrVTto9AunW4TaFQTvr8IKldw086L3oBbh7ppm6wSgS0awGhtr17thdC1H7z2ja6ViAgMswBgBNAmIgOk1nECd+wD5zpaIGjQt7CXbWGViICDBLq3hd7dHDTMIZM2uBF+numQQeky5VMLAOwE5pbp8lveeiVQp1p2FWAtB4tF/zkP1r4GFisloNfpVLsQCTx+KBzVOkSFMVM1fQ7UvjZmRifL3NEWAHwNbJYsv+SNnwR67AI3dvZzRP/G6tAXhv7o33gaSQT8IjDpMmjgeGEtv3wtZJz3vofdHiykp/r4ROAbCwC+BzbyaUANk0ACVSvC+AuhYU33nLt9KFzwhnt2yaJ0E7DMf5ZLQ1I6gV4fwnmvi1CEBH6wAMByMDWM0AipjgGB/2wHDxzonqHfTYVmt7lnlyxKN4HrOsJlDp+gcWF2DnsKnhntgiWptWGiBQC/AfVSi0COeyJQbg346FRo19hT81AbbX4HjPk9VJVSJgKrJTDqLNhKj1WrZdT4Jpg4QxdShAR+twDA9mA6uLgbIRapLpFAs7ow6mywVwIuyRVD4Lp3XbJItqSZwPprwU89wPIASEomMGkWNFQJuqgvjxl2ic4FHNzjHTUb6S+JwNk7wJ1d3WIz6ldorbTAbk1Kiq05rR3ct1+KAXhw/fkv4eAnPTRUkyAJzLEAYDGgWlVBYk7Q2MtSR54MHRzbNrrhTfCTlhMTdKXF15XBJ0CnZvG1PwzLL3gdbv8wDE3SsRoCCxQA6PrIm0CT2vDlObBmpby7BtbhzIFw7/DAhtfAIuCJQI3KMOUKd7NnenIihEY79IFhP4WgSCpWR2CJBQB/AdXESQTyIXDcNvDowfn0CLbtm+Og8yPB6tDoIlAWgQM3h+ePKqtVuv99Ya6Q13wV8or6Qlj2CmA6UCtqS6Q/fgR67QPnOJImeMFiWPtq1RWP31WULIstKLbgWFI6gU8mQrveIuQAgWWbAHUM0IGZiKMJdjTwteOgiyPlTvd6BAaNiyNJ2ZwEAuXXgMmXQ901k+BNcD7c+B5cakXoJVETWHYMUImAop6GGOuvWRmGnwYt6kfvxB0fwvnKLBb9RKTUggNawgtHp9T5PNze/UF41/LPSqImsCwRkFIBRz0NMde/SZ1s2tO1I657PvJ/sO29MYcp82NLYOAxsG+L2JofiuFzF2Zf1c23s2eSqAksSwWsYkBRT0MC9G+/Prx1Etgu6Khk0RKofQ38OT8qC6Q3rQTqVYdfLoUKOlC92kvgnfGwx0NpvUqc83usygE7NyfxNaj9BjD4xGiDAPtysS8ZiQiESeD8neC2vcPUGE9dlwyGm96Pp+0JtHqUBQAjgDYJdE4uRUBgxw1h0AlQPaIcAT0Gwc0fROC4VKaawNjzoLkqqpR5DWx/H3z6c5nN1CAcAp9aAPAx0D4cfdKSBgI7bQiWDa1aBEGAUoym4Qpzy8c268OI092yyUVrZsyFOtfCkqUuWpdKm4ZaAPAOoMKVqZz/4Jzedj145VhYt0ZwOkoaecxvsHmvcHVKW7oJ9OkGp7ZNNwMv3r80Bg543EtLtQmJwLsWAAwCOoekUGpSRKBhTXjpaLAnpLDEsotVvRz0kBEW8XTrqVwBJl8GtSI+AROHWTjxeXjk/+JgaWpsfMMCgJeAbqlxWY6GSsC+IPsfDIduFZ7a+j3hd0twLRGBgAkc0QqePCxgJQkY3pb9170efp+dAGeS48KLFgA8ChyXHJ/kiYsELtgZrusYTpGUFrfD11NcpCCbkkbg3f/ArhsnzSv//VH6X/+Z+jBiPwsAbgfO82EwDSECqyVgu6QfPhDaNQ4WVJt74b//C1aHRheBVg3hszNhDfsWlayWwKWD4UYd/3PtKrnFLt0ewI2uWSZ7kknAvizPaAc3dg6unHDru2DUpGTyk1fuEHjqMDi8lTv2uGzJFr3gK6s6I3GJwCUWAJwK9HHJKtmSfAINasDFHeCU7aFqRX/9tWyA0+f6O6ZGE4EVCWy4Nnx3oTL/ebkqJkyDJrd4aak2IRPobgHAIcAzISuWOhFYRsCOCVogcLJPgcDEGdD4JsEVgWAJ3LMvnKHsKZ4g3/0xnP2qp6ZqFC6BAy0A2AV4L1y90iYCKxOoXRUO3hKOag07NC78vep178IVQ0RXBIIjUKcaTOwRTaKr4LwKbmRV/wuObZEj72oBgL3F+rzIgdRdBHwj0GTtbDCwcxOwIkNe66uP/AV26QuzF/hmigYSgX8RuHw36NlRYLwQ+O1PaHQDLFZiDi+4wm7T2gKAhsAvYWuWPhHwSsDKDbfdALZbDzaoBeusmQ0K7KdVH/xhGjz2Gdz+IVgiIIkIBEXA9qv81CN77UnKJnDXx3COlv/LBhVNi0YWAFQBtGUqmgmQVhEQgRgR6N4WeittmucZ26EPDPvJc3M1DJdA1eUnWC0AsEBAIgIiIAIiUAKBcmtkd/5vVFt4vBD4aTpseLOXlmoTAYE5wJrLAwCL0TaIwAipFAEREIFYEDhsK3j68FiY6oSRt3wAF1ulGYmLBCYATZYHALYJUCktXJwm2SQCIhA5gYrl4OvzYeM6kZsSGwOUkMvpqRoFLNsEaPImoH2tTs+XjBMBEYiKwFk7wF1do9IeP73jpsCmlmRe4ioBOyzdaXkAYJkALSOgRAREQAREYAUCa1WB7y8CO/8v8UZAuf+9cYqw1f3AskyAJhdnNgEqf1qEsyHVIiACbhK4bS84f2c3bXPRqsVLYP0bYdKfLlonm3IErAbQzcsDAKto/bTQiIAIiIAI/EOgcS349oJwylgnhfsrY2G/x5LiTWL9sO2sA5YHAG0z7wOGJ9ZVOSYCIiACBRB44lA4snUBHVPcpdtjMHBsigHEw/V2wCfLA4AGgAqoxmPiZKUIiEAIBLZuCP93ZuF1KUIw0TkVk2Zll/+V+te5qVnVoHUz+/4mLw8AygHzgQrOmy0DRUAERCAEAu+fDB02CkFRglTc9D5cMjhBDiXTFUv8Z8msly4PAMzNH4ENk+mvvBIBERAB7wS6NodXjvXeXi1h6VLY5NZsbQ6J0wS+AZqbhSsGAFYS2EoDS0RABEQgtQQqV4Avz4GmdVOLoCDH3xkPezxUUFd1CpeArdF0WTUAeBQ4Llw7pE0EREAE3CJwU2e4WI9CeU+KNv/ljSyqDstyAKwaAFyV+R9XR2WR9IqACIhA1AS2bAAjz4IKtitK4pnA939A01thqeceahghgSuBnqsGAPb0b6sAEhEQARFIHQGr9jf8NGizfupcL9rhs16Be4YVPYwGCIfA8Zn9fv1WDQAs19UH4eiXFhEQARFwi8A5O0Av5fvPe1JmzoNGN8BfC/Luqg7REOgADF01AKgF2P7NFTcGRmOetIqACIhAiAQ2XBu+OhfWrBSi0oSo6vUhnPd6QpxJvhv2lqY2MGPVAMD++xegYfIZyEMREAER+IfAmydAx2Yiki8By/tvR/8mTM+3p9pHROBXoNFy3as+7Q/KpAfsHJFhUisCIiACoRM4qjU8fmjoahOh8IUv4aAnE+FKWpz4+whgSSsAVsH5vLSQkJ8iIALpJlB3TfjmPKhjedEkeRNoex+M+DnvbuoQHYE7gPNLWwHQSYDoJkaaRUAEQiYw8BjYt0XIShOi7s1x0PmRhDiTHjf+PgFQ0gpAm0yGoBHpYSFPRUAE0krgrPZw175p9b54v3fpCx9YAr26Ma8AACAASURBVHlJnAhsA3xW2gpAtcwrgFmZJAHl4+SRbBUBERCBfAhs2wg+7g6VVP4sH2x/t/3wR9i5b0Fd1Sk6AouBmsCc0gIA+//fA6qBFd0kJV5ztYpQuxrYT8u7vuxTPvuzyvL/rgCVyoPtMl6wGBbmPvb7vEVgZ49nzIPpc+FPq2MpEQGPBNaqAp+fBU3sMJSkIAKdHoYh3xXUVZ2iIzAO2HRF9SWd+X8J6BadjdIcVwL1q0OzurDZOtB4bbANVnWqZW/2datlf7f/Zzd6P2XREpgxF6bNgd9m//OZ/Cf8PhsmzgBLVTphRjaQkKSbwHNHwkFbpJtBMd6PmAhtexczgvpGROBlYP+yAoDrgUsjMlBqY0DAnqBsCXXb9aBlfWi2DmxaF2pVddt4W01YFgxMg2+nwKhf4bNf4KvfsqsMkuQT6L499F7pKzD5PvvtYdd+8JoVlJXEjcC1gNX8+VtKWgE4LLNM8HTcPJO9wRCwp/VW68J262VzpNtPu+Fb3vSkiN38x/yWDQY+/Rk+nABf/54U7+THcgKtG2Zz/fu9ApUmwvb3sf19afI4Ub4eDgwoKwCwQzFjEuW2nPFMwN7Bd2oGezaF7dcHq46Wxo1SU/+CjybA+z+AHXf6ZopnhGroIAFL8Wvv/ZvWddC4GJm02wPw3g8xMlimrkigObDS2k1Jz3EVgT+AGmKXDgLVK8Hem8EBm8Nem0L1yunwOx8vf5oOg8dlg4F3xsMsbTzMB1/kbZ86DA5vFbkZsTbg9W9gn2U15CQxJPBnrgbAorJWAOzf38lUC9othk7KZI8EKpaD/TeHI1tBx6ZQxcI+iScCCxbBW+PhudEwcGz2NILEXQIX7AS37u2ufXGwbMlSaH0XjJ4cB2tlYwkE3gV2X/X/l/YmVxsBE3oNrbcWnNIGTmoDDbTGU/QsWzBgx6Ge+zIbDNjxRIk7BA7aHJ45Mll7VqKg+8TncPQzUWiWTp8I3ABc5jUA2AtQgUefyEc9jEV59k6/e1vYpzlUKBe1RcnUP29hNhB4YAR89FMyfYyTV+03gHf+o9WtYufMNsluepsq/hXLMeL+tgb2htcAwFJkTAUStNc7YvwRqe+yKdzYGbZaNyIDUqrWThX0Hg79RsKchSmFEKHblo9i2GnZ3BOS4gjc/TGc/WpxY6h3pASWArb9dZrXAMDafQuoQnak81a48rbrw01doINyOhYO0Yeelpyo7wi4dzj8akm2JYETqF0VRpwOm2jHf9GsLdNm01vhj7+TxxY9pAYIn4Dt/LcTAP+S1T3hPwpYdUBJjAi0qAfXd4L9WsAaWr9xZuZsGXXAF9DrQxg1yRmzEmeInfF/5yTYYcPEuRaJQ91fgvtVHi4S9j4qtZqNJ+YbAJwMqNyDj7MQ5FC2q//qPeGiDnrHHyTnYsdeuhRe/RouHwJfakd1sThX6m/xrqX5PVBpfn3hapkyt7kH7ASAJNYETgEeyDcA2DKTN/iLWLudEuO3aAD9D4bWjVLicALctC/VZ76AK9+C8ZZ1Q1I0gdv3hvN2KnoYDZDJF2uB6o73wzBtZk3C9dASGJtvAGB7xe2rqVYSCCTRB0vHe/5OcF3HdGbrS8KcWnGiPp/AVW8pn0Ax83nJLnBD52JGUN8VCTz5ORylY39JuChmAHWAJfkGANb+TaBjEigkzYd61eGFo2BHvetMxNTaJqsrhmSPEC7Wkmtec3rprtl9LxJ/CMyeD81ug0mWO04SdwKDgS6lOVHWNjGrHHR13Akkzf6tG8LLx8D6WptJ2tQu2xdw+svZgkSSsglcvhv01CNK2aDyaHHRG3Dr0Dw6qKnLBK4EehYaAOwBvOWyd2mzbf+W8MShUK1S2jxPj7+2P+DBT+HCN+BP1RwodeLtqd+e/iX+ERg9Kbvxb1GJC8b+6dFIoRHYE3i70ACgCjAdsJ+SiAnY0861e+p4X8TTEJr6X2bC6QOzKYYlKxPQzd//K2LxEmjXG/77P//H1oiRELDsDfb+v9QE5WW9AjCrtQ8gkrlbWWmfbnBqWwcMkQmhE3h2NNh57GlzQ1ftpMKbu2SPu0r8JXD7ULjgX8li/dWh0UIlsNr3/2aJlwDgvExp4NtDNVvKViKgm78uCFsNsGIsaa/Frpt/MH8L46fCFnfCvJWKxQajS6OGRsDu3b1Wp81LANACGBOayVK0EoEHDoD/tBEUEQBbor3lg2zugLS9o7UvKjvnf67O+fv+p2Bn/nd5AIb+6PvQGjBaAqWe/19ulpcAwNrapaEDZyFPpm7+IQOPiboRE+GQp2CinfBNgVSpAI8dAgdbajKJ7wTs6OkpL/k+rAaMloClcCrznu01ALBcwsdH60+6tF+zJ1y5e7p8lrfeCUz5Cw56IvlPbXWrwavHQtvG3tmopXcCFkRu3kunTbwTi01LS/1rKYBXK14DgEMy1YSUF6osmj79e9fm2XP+lulPIgKlEVi0GM59LVtpMInSvB68dhxsZMXJJb4TsOOmuz0AH2jp33e2Dgx4IPBiWXZ4vcWsDfwOVChrQP17cQRa1ofhp0GNysWNo97pIfD4Z/CfF2F+gjZw7boRvHQMrKUDyIFdyLcNzeaakCSOgH0T1Msd4fdlBcAG+RhonzhUDjlUszKMPFN1zB2aktiYYkVb9u4HMxJwVPC4bcD2v1QsHxv8sTP0s1+gbW+wWhSSxBEYlkngt4MXr7yuANhYSgvshWgRbexd5z7NixhAXVNNYOxv0OXReG8OvKET9NhFya6CvJDnLsxm+/va1nQlSSSw2vS/KzqcTwBgT/+2CiAJgMBhW8LTRwQwsIZMFYFfZkGXR1hWUyBOUrl8dqf/IVvFyep42nrGQLgvoftG4jkjvlu9PfCpl1HzCQDs/f8koK6XgdXGOwFb+v/mfFi3pvc+aikCpRGw1wCdH4ERP8eDUdO68Mzh0LpRPOyNs5WvjIX9HouzB7K9DAJTc+//PdUUzScAML19gZM1Bf4SuHc/OL2dv2NqtHQTmDUPOj7sfhBwZCu4f3+ork2vgV+wE6ZBq7thZqmZ4QM3QQqCJ+Dp+N9yM/INADoDg4L3IT0atmwAn50F5culx2d5Gg4Bl4OANStB725wzNbhsEi7lgWLYIf74f9U6Cfpl0KnzGb9IV6dzDcAsCK0v+g1gFe8Zbd75gg4RBnOygalFgURcDEIaN0QBhwOzdYpyCV1KoCA3vsXAC1+Xf4A6gOez3bkGwAYEmUF9OnC2KRO9t2/nv59AqphSiTgUhBwRju4bW+orIwioV2tz43Opo6WJJ7Ao8AJ+XhZSACg1wD5EF5N24cOhBO382kwDSMCqyEQdRCwdlXofzB0tdJiktAIjJuSPfI3e0FoKqUoOgJdACsB7FkKCQDsNcBvQC3PWtTwXwQa1YQfL1ayE10a4RGIKgjYYxN45CBYX98Y4U02YPNtyX503j9U7FEps+X/dYGF+RhQSABg49tSw3H5KFLblQlcuitcb9s1JCIQIoEwg4B11syW8D2qtRL7hDjFy1RZnv+u/eCNb8PWLH0REehXSMG+QgOAfYGBETmaCLWW8ndrnXtOxFzGzYkwgoBjt4bb94E61eJGJxn2XjwIbvkgGb7IC08E9gbyruxQaABgrwGmAEpd42luVm604drww0V6KioAnbr4RMDOgu90v/8ZA5vWgb4HwK4b+2SohsmbwNOj4IgBeXdTh/gSmJFL/pPX8r+5W2gAYH37A8fEl1l0lp+/U3YntEQEoiQwaRa07wMTphdvhRXuuWhnuHw3qFKx+PE0QmEEPv0ZOvSFeQmqDFkYiVT1Kmj5v9gAoBvwUqow++TssO7QrrFPgyVwmMVL4I85MOUvmDIbptjvs2HanOxu5jkLs5+5K/xuGGynuX1qV4Na9rNqtpa81ZVvUCOBoHxwadxU2LFPlnWh0r4xPHgAtLATyJLICPwwDdr1ht9nR2aCFEdDYD/glUJUF7MCUDWTFvhXnQbID3vVijD7WihXDPn8VDrbeulS+GkGjJ6UXYpe/vl2KlgQ4KfUqgKb1YPm62T3XuyzGWxY208N8R3LssPt+kD+R8XqV4dr94ST2uh6jnr2p8+FHfpox3/U8xCB/oKX/4tdAbD+fYBTI3A6tirbrAcjzoit+UUZvmgJfP4LDJ0AH/4IH07IPtVHJVs0gK7NYd/msN366b6Jvf0d7NXPW314S+N7UQc4b0fl8I/q2l1R7/xFsMdD8NEEF6yRDSET6J3Zj3d6oTqLfQ61TN4jC1Wexn4nbQcPHpgez+3LaeBYeOJzeO/7/J8ywyJlGzNPbgPHb5ve1wXPfAGHPw2llRGrUA5O2R6u3B3qVQ9rZqRndQRsFe2wp+DZL8UppQRaA6MK9b3YAMD0fg60KtSAtPW7uyucuUPyvZ44A+4ZBo/8F6bNjY+/tplt/5bZG92uG6XvpIbN2VmrvE20LwmrV2F5KzauE5+5TIOl574Gd36UBk/lYwkE7MZvAUDB4kcAcCZwd8EWpKzj2yfB7psk12k7Y37123DvMFjo83v8sKk1qwtn7wD/aZOujI2XvwnXv5elbUHQLXvBtuuFTV/6yiJw43tw6ZtltdK/J5iALf3bK4CCxY8AwBJ82mZA2xQoKYPAF2fDlpawMYHy2S9wwOPZjX1JEivadEMnODglVRttWfmad6DdBtCpWZJmMjm+WIB9ZkH7vpPDIOWeZB61lqX+Lerb1o8AwObhaeCwlE+IJ/d/6gEbJDAn+oiJsPtD8FeCi45svz7cuhfs1MTTVKuRCARC4PHP4JhnAxlag8aHgN1zjyjWXL8CgN2Ad4o1Jg39Z10DNSony1N739/qLrCjSGmQbi3g7n1V3CYNc+2ajy+NgYOeyOb6l6SawK7A+8US8CsAsHG+z2QH1LPRambEdlEvuD55G8tOeREe+LTYSzFe/WtWzgYBx24TL7tlbXwJvDkO9u0PCxbH1wdZ7guBHwFLtl10GOhXAGBeXQFc64t7CR3ECqNMvTJZztkxv3o9Ydb8ZPnl1RtLKPTAAbCuqmJ4RaZ2BRAY9A3s/wTY35sk9QQuA27wg4KfAUBDYCJQ3g/DkjiGpab946pkeWYb/7a5J1k+5euNzWvvbnDoVvn2VHsRKJvAG3bzf1xP/mWTSkULW//ZILfxvmiH/QwAzJhBQOeirUroANUrwZ8JWyN56zvo+HBCJyxPt07cFnrvD5UUAudJTs1LI/Da13DAE94yNIpiKghYyV/fSsn5HQDYzd+CAEkJBOzGMP/6ZKEZ+T/Y9t5k+VSMN1YY54Wj0ptNsBh26rsygVe/hgN189dlsTKBLsBgv6D4HQDYeGOA5n4ZmKRxDM6iG6BcueR4NWcB1LlW5UdXnNGGNeHFo2B7W6iTiEABBF78Cg59Cqx+hkQEcgS+Blr6sflvOVG/AwAb9xTgfk1ZyQRsE6BtBkySHPwkPK9c5CtNqa329N0fjts2STMtX8Ig8NCncMpLOuoXBuuY6bDCe339tDmIAMBubz9n0gOr2GoJM/Xt+dBsHT+nMPqxvpoMW94FlkFOsjKBy3aFnh2Td/RT8xwMAaX3DYZrAkadBlhCbl+zrQQRABjrG4EeCYDuuwvDukO7xr4PG/mAN70Pl/j2Zipyd3w1wGoJ9OkG5RP06sdXQBpsWWKfs1+Be4cLhgiUSMB2j13uN5ugAgDLUWzJChKW8654/AOPgX1bFD+OayPY0/8ZA6H3J65Z5oY9B20BTx6mEwJuzIZbVixcDMc+C09/4ZZdssYZApZlxR4bf/PboqACALPzUeA4vw2O+3h3dYWzElwOuN//ZYuUzE5wTYBCr8E9NoGXjgE7DioRASNg1TPtmN8748VDBEol0A84Pgg+QQYArYDPgCB1BMEk0DGtvOydXQNVEfngv8yEHoOzTzSLtYt5pfmwY4JvnQTVKkY+TTIgYgITpsM+/WCM7891ETsm9X4SsJ1VrYFA1oeCvjlbVfFd/KQR97G6NodXjo27F97s//4P6PURPDUqPYWCViRjf1ybrgPbrgfbNMr+bN0Q1tQKgLcLKMGtrHpm1/4w5a8EOynX/CBgBX+s8E8gEnQAsB/wciCWx3TQ5vVg7HkxNb5Asy1/uSU1sc/gcfD77AIHcrhblQqwRQNo1RC2Wjd7o9+yAVTXLhiHZy0a0174Co4eAHOV1z+aCYiXVruHvhKUyUEHALbveVyuclFQPsRq3HJrwJ/XQLUUPwV+/iu8Ox7e/wGGT4Q/5sRnCu18f5PasHn97A2+ZX3YvAFsUke7/OMzi9FZqmN+0bGPoWbfE/+syiDoAMD0WfKCPjGEH5jJH3cHexcsyRKY+hd8OwW+mQLj/wB7dfDdVPh5ZvjBQdWK0LgWrLcWrL9W9qfd8DfKfSzLn47z6crNl8BfC+C455QwK19uKW9/MvBgkAzCCADsWfe7XAWjIH2JzdhWR/7M9rExN1JDrfb55D9h0iz4Yy7MmJvdOT1jHlga4nmLYP7ibJnU5R/rs+z3xdlNiLY8bzd2+9SoBGtXg7WqQK0qUHdNqF8996kBNbRkH+l8J1G5BbTdHoOvtNkvidMblE9WWbcpEOh5qjACAAOk9MArXCaHbQVPHx7UdaNxRUAEXCFgpXyPGAAz57likeyICQHf0/6W5HdYAYBWAVagX29NmHy50sPG5A9RZopA3gSWLIEb3ocrh4AyZOeNL+0dJtgBoqCf/g1yWAGA6ToBUOX43KX95TnZzWMSERCBZBGwUy721K/kPsma1xC9sQR6/cPQF2YAUAGwXY2bhOGY6zp67QPn7Oi6lbJPBEQgHwJ20z/qmey+FYkIFEDAckJuBiwuoG/eXcIMAMw4S4FjaQ1TLzs3gQ9sZ4REBEQg9gRss+nVb8MN76mMb+wnM1oHQnv6NzfDDgC0CpC7uCwfwK+XQv0a0V5t0i4CIlAcgYkzsk/9H1r5M4kIFE7AcuZYqbhQnv6jCABM59HAY4UzSk5PKxF7atvk+CNPRCBtBJ74DE4fCLOsXptEBIojcBjwTHFD5Nc77BUAs86yA36Zi3TyszZhrXdoDB91T5hTckcEUkBg2hw4+UWwtL4SEfCBwFhgCyDU8mlRBADG6tDMRocBPkCL/RBfnZtNJysRARGIB4HB38KJL8Cvs+Jhr6yMBYHQn/6NSlQBgFYBctekZQS0zIASERABtwnMng8XvQF9Rrhtp6yLHQFbR9oq7Kf/KAMA090ZGBS7qfLZ4OqVYOIlsHZVnwfWcCIgAr4RGPQtnPoS2IY/iQj4TKALMNjnMT0NF9UKwHLjLACwQCDV0rMjXL5bqhHIeRFwkoBVqjzrFXhqlJPmyaj4E7AbvwUAkUjUAUBLwP607HhgaqVuNfipR7pLBKd28uW4swTspn/OqzDlL2dNlGHxJmCFfrYGxkTlRtQBgPl9L3B6VABc0XtTZ7h4F1eskR0ikF4CP06DMwbCG9+ml4E8D4XAncC5oWgqRYkLAUDtXLlg+5laqVkZxl8I61RPLQI5LgKREpi7EG4bCte/ly0nLRGBAAlMy5X7tZ+RiQsBgDl/NmDRUKrltLZwX7dUI5DzIhAJgVfGwjmvgT39S0QgBALnAHeFoGe1KlwJACoCdhSiWdRAotRffg347xnQulGUVki3CKSHwPg/4KyBMMiSsEpEIBwC3wG2/21hOOpK1+JKAGAW7ge8HDWQqPVv3RA+PQPKW6YEiQiIQCAEZs6Da9+Be4fBgtAyrwfiigaNH4H9XbnXuRQA2DS+B6R+K9yte8EFO8fvqpbFIuA6AbvZ9/kEer4DdsRPIgIhE3gf2DVknaWqcy0AaA38X65egCuMQrejcgUYcTpstW7oqqVQBBJJYOlSeHEM9BgEtuwvEYEICFie/20zq92fR6C7RJWuBQBm5MPACa4AisqOZnVh5JlQvXJUFkivCCSDwMcToMdg+GhCMvyRF7El8ABwikvWuxgA1M0lRqjnEqgobDmiFTxpJSIkIiACeRMY+QtcMQQsja9EBCImMDlTAG+zzLn/mRHbsZJ6FwMAM1DVAnPTdOc+cPaOLl0yskUE3CYwZjJc+Ta8qFK9bk9UuqyLpNpfWYhdDQDMbtUJsM0Qa8DAY2Cf5mVNpf5dBNJN4LupcPXbMOALWLI03SzkvVMEIs33vzoSLgcATXK5Aao5NZURGLNmJXj3P9Bm/QiUS6UIOE7gy8lw0/vwzGhYbNusJCLgDgE7a7I58KM7Jv1jicsBgFl5MXCTi+DCtqlWVfjgZNhSJwPCRi99jhIY9lP2xv/q144aKLNEAHoAN7sKwvUAwKoEfgZs4SrAMO1aZ014/2RoUT9MrdIlAu4QsON8g8fBze/DB04+U7nDSpZETuDLXLU/ZytLuB4A2Ay2Az5Ke26A5ZeyBQFDToRWDSO/uGWACIROwAKA816DOz8OXbUUikA+BOxllG3fHp5Pp7DbxiEAMCZ9gFPDhuOqPqsc+NpxsJPtkpCIQAoJ2NL/Jba1SiICbhK4H+jupmn/WBWXAKBW5migvelr4DrQsOyrUgEGHA77WUkJiQikkMCDn8KpL2nHfwqn3nWXf869tnbqzH9J0OISAJjtyg2wygza5PXsCJfuCmvEaSZd//OVfbEh8OxoOGoALNTu/9jMWQoMdabYT1ms43bbGJjZFLhvWU6l7d8P2hz6HwLVKqXNc/krAjBkHBz8JMyaLxoiEDmB5zOZbA+O3AqPBsQtAFgHGAVoC9wqE9yiHjx9uI4Jerzu1SxhBL7/Aw54HEZbwlWJCERD4Nfcmf/p0ajPX2vcAgDzsDPwuk4F/HuyrYrgHXtD97Z6JZD/n4J6xJ3AnIVw0vPw9Bdx90T2x5CAvYTaG4jV1tQ4BgB2bdwJnB3DiyQUk7tsCvftB01qh6JOSkTAKQL3DYdzX4OFi50yS8Ykm8BdwDlxczGuAUAV4P8A7YEv5YqzUwJX7g7n7wSVLJ2SRARSROCTiXD0MzD+jxQ5LVejIjAG2BaYF5UBheqNawBg/m4JfMr/t3cmYFYU1x7/yc4w7JsIQgL4hOeCRhEFXBHXmKiJikskRCFqnsRgNp/G6IvRZ2KMxhiXmGjMiwsajfiiQYUYWRRQExZ9IggxrLKD7CC+e+i+H8MwM9ylb9+u6n99X399Ybqqzvmdmqlzq6vOgcaFKp+Ger3aw31nwwk90qCtdBSBXQQ2bwuSA/1sAmzXKQENjdIQ2Jp5Jd0XmFGa5kvbqssOgJH5DvCT0iLyo/WvHA53nAkdKv3QR1qIQK4E/rEYRjwD0xbmWkPPiUDOBK4F7sz56YQ96LoDYPK/ApyUMK6JFKdVE/ivU2B4X2jSMJEiSigRKAkBWwH45WS4ZTystPxsKiJQPIHxmTD1JwPOJp923QEwE3YF/g5oy1uOA7pTc/ju8TCiH1TIEciRmh7zgcC6zUEegTteg48VN8AHk5ZLBzvqZ6+hnV5X8sEBsAGgKIEF/Bp0rIRvHxccG2ymIEIFEFQVVwnYKoBlFPzl67Aps1dARQTyJGBzzug86yTucV8cAAP7CDA0cYQdEMgyDI46Fr5xDDTXlkoHLCYRoyKwcgP87m14cArMXhFVq2rHcwIPA1/zQUefHICKMG3w4T4Yphw6WJbBCw+Dy/vCkV3KIYH6jJvAxq0KIW3MLc3wa/Phwanw9EzYqhgCdQ7FevuAHTW24GON6gd3C8S0ZpP3Jy7sdbOl+fViJ4lPDoAN2O7AW5lAQZY9UKUIAn06wWV94ZLDoXXTIhpS1UQR2LAVJn8Ir84LrmkL4NbTgldBKgGBFRvg0bdh7Psw8Z/BxOZrsVNB+1YGp4NsJXDnVQntKoJ724pgVbCyUfCa0O6VjaFBvdqJrN8CqzcFMRgsHsND02DeKi8IrgGOAOZ5oQ3gmwNgdjkjY6TnFSo4miFqXv65BwfOwEmKJRAN1BhbsffbNuH/1Sb8D2Dqwpoj5D11MXz5kBgFc6SrrduDSezV+WDHCWd9BHMS/KrAJuhWTcFO/NjdJvf9WsC+zXfdbe+PXTbp169jIo/KRJ/sgF+9DiPtr7K7xdaELBHdC+6qsKfkPjoApuXNwI0+GSoJutgfks/3grN6B86Asg8mwSq7y/DORzB1Aby5EKYsgOlLcluSNUdv3HDo3y15OiVNIlsRMM4zl8A7y2DJOli/FWx1xa7s51zltj/C2aV0i9rZuH6wvG7fvO1q0QRaNgn+L7vsbs/bZ/vGnp3MOzYPluOTWq4eExzFdLTYfPIjR2WvVWxfHQDza8eEyRl8s1ki9LE/PoN6wlm94Mze0KVlIsRKjRAW5/695TBzafDN1Cb8NxcVd7StTQVMuQp6tksNRikaI4FX5sLgh2LsMLquLPncWS6f968Nha8OgOlrU5LtB9DCdXS/CLW2dPh+YEmI7Btkv/2hXbMYOk1BF7Y5bdG6YKK3a8aS4G6Tfyk2qh3QDiZdEbz/VRGBKAmMeRe++GiULcbS1gfhe/+1sfQWcyc+OwCG8jBgUiZcsJ0QUImRQI820K8rHLV/4BCYg2DLlip7ErBJftn6YNPUnJUwd8Xun9fFHLDm0E7wtxHBO2QVEYiKwD2TYaSty7pTbKf/AOAf7oicn6S+OwBG4yuZ0wHu+Z352THxT9tmo55twZIT2XVgeO/Vwf9TBpaUZunHsKTKtXgtzF0VTPY26SctKp05buMuD3Z8q4hAFARGPgf3vB5FS7G1cSHwRGy9laGjNDgAhvVe4Koy8FWXORCwTUxZx+AzbYJNTbahqepu5SRtbrK48hZAZsXG4MjYzqvK5+Ubdp/w7UiUi+WE7vDCMGiqcNEumi9RMu/YAZ1vC34vHCn3ACMdkbVgMdPiANifMEsapNPOBQ+V8la0DWpZh8Dutjs6G4DE7pbcqH4YnCS7k9ruVuwY0s7r0+BuE3j2s/17W/hz28FtO7wtOI4dn9v5OXuFP7PJ3NUJvRALnnEgPHtpTRBH1AAAECZJREFUsneXF6KX6sRL4KU5cOpv4u2ziN5eBU4BPI4AEdBJiwNgurYGpgAHFDEwVFUEUkfgzF7w9MXKIJk6w0eosO3+t1MADpTZwDGAJfvxvqTJATBj9sx4dnYStb33lpWCIhAhgUE94LmhShoVIdLUNOXQ7v/lQH/ADVclghGUNgfAkB0NjNPJgAhGj5pIFYEB3eDPw4KgNCoikAsBe5XW5+5kR08M9bCdOoMAt7Yp5mKEOp5JowNgOM4HHle44CJHj6qnjsARnWHsZUGMeBUR2BuBYU/BIxaNJdllB2A7/p1P75sv5rQ6AMbp+5kInLflC0zPi0DaCdgRzheHwWfbpJ2E9K+LgE385gA4UGwuuN0BOSMXMc0OgMF8EBgeOVU1KAKeE7BEMs8PDQI9qYhAdQJvLYSB98Pm7Ylncz9wZeKlLJGAaXcA7HigxXkeXCK+alYEvCVg8QEeGwJnH+StilKsAAKzlsLxD8Cq5Me/eDlzMux0OylcgJpeVEm7A2BGbJHZ/DEBONQLi0oJEYiRwD77wM/OhG8NjLFTdZVYArOXB5P/R+sTK2JWsOlhXJh1iZe0hALKAQjgdgXeADqVkLWaFgFvCQz9HNx/bpCiViWdBN5bBoMegsXJn1IXA/2Ahem01C6t5QDsYtEnPB7YNu2DQvqLQCEELOGTBQzqrt+gQvA5XWfC/CDTnwNRMlcCJ/uc4CefgSQHYHdafcOQwfZaQEUERCBPAhYjwPYFnNErz4p63FkCT0yHoaNLk546YiiWicDO+k+LuF1nm5MDsKfpTgBeyBwLUTJUZ4e1BC8nAfujct2JcPPJ0KB+OSVR36UksONTuHU8/MC20iW/bAA+D1icf5WQgByAmofCacCfMnEClAxVvyoiUCABCxr0+wugd4cCG1C1xBKwDJiXPAlj30+siFUF2wJ8IRPm9yUnpI1RSDkAtcP+UpgLWtuaYhyQ6sovArYp8PbT4T/6Qz39tfHCuBP/CUMeg0XJ3+xnvC2j35DMKa9nvIAfsRL6lawb6CXA7xQyOOJRp+ZSR+DknvDAudBd0QOdtb2lzv7pa3DD2CCdtgPFQvza33AL+65SAwE5AHsfFlcAv0pZ6uS9U9ETIpAnAVsNuHEQXHscNNLegDzplffxeSvh0tEw6cPyypFH7+aiWIS/B/Kok7pH5QDkZvLvAf+d26N6SgREoC4CvdsHMQOO+6w4JZ3Ap5/CQ9Ng1P/C+q1Jl3Y3+b4J/MIpicsgrByA3KH/MPPoTbk/ridFQATqImDBg358KnRuKU5JJDB/FVz9HPx5dhKlq1Mm+zt9s3NSl0FgOQD5QZcTkB8vPS0CdRKwfALfHADXnQAtmghWEgh8vAV+PB7umghb3IuSr8k/j0EkByAPWOGj12TyB9ypPQH5g1MNEaiNQNsKuP5EuOoYaKxzN2UZKLbJ7zfT4MaXnYjlX52RvfMfBdxVFniOdioHoDDDjQDu0+mAwuCplgjURqBzCxh1LIw4CioVhSOWgWIT/5h34aZXYMbSWLqMuhPb7W8b/iy9u0oeBOQA5AGr2qMXA48A+r5SOEPVFIEaCbRpGsQOuLo/tGsmSKUgYEv9D78Jd0+CeatK0UMsbW4Hvgr8IZbePOtEDkBxBv0iMBpoVFwzqi0CIlATgYqGcFlfuPJoRRSMaoR8uBrumRzs7l+7OapWy9KOSW9Bfp4rS+8edCoHoHgjng48DVQU35RaEAERqI3AwM/A5X3hvEOgQi53XgNl5Qb44ywYPQP+Og8sjr/jZSNwLjDWcT3KKr4cgGjwHxsmEKqMpjm1IgIiUBsByzh40WEwpA8M6Ab164lVTQTWbYZn3wkm/ZfmwHZ7U+5HsSDElthngh/qlE8LOQDRsT86dAJaR9ekWhIBEaiLwL6VcM7B8KWD4fju0CDFzsC2T2DKAhg3N7jeWAD2f56V1cBg4C3P9CqLOnIAosV+KPCXTPjJTtE2q9ZEQAT2RqB1UzipB1jegcEHQI+2e6vh9s9tGX/GknDC/wAmzHcuWl++BlgEnJFZ+p+Rb0U9XzMBOQDRj4wu4UrAIdE3rRZFQARyJWCJh8wR6N8VjuwCB7Z393XB+i0wc2lwTG/6kmDit8+2kz8lxSZ9m/zNCVCJiIAcgIhAVmvGgps+FS5VlaYHtSoCIpAXgcpG8LnOcERn6NUeeraFnu2gS8tkpCq2yXzBGli4FhashX+tgVk24S8FS8bj/r69vMxV9WHb6PdlYH3BLahijQTkAJRuYDQMgwVdVrou1LIIiECxBCzyYI82gUPQtRV0bA4dmgX3jpXQvhk0bQANGwRZDLOXbT60IDrbdgR322RX/W6hdFdthJVVrhUbYPWmXf+3ZF0w4Tt+JK9YM9RW/9dhkB//djOUilge7coByANWgY9+PxMn4FaFDi6QnqqJgAikkYCdWbheWVhLa3o5AKXlm239QuBhQMFN4+GtXkRABNwlsAkYGr5GdVcLBySXAxCfkQYCfwI835scH1D1JAIi4B2B5cDZwGTvNEugQnIA4jVKT+BFwO4qIiACIiACuwi8Hwb4mSMo8RCQAxAP56q9tAeeBQbE37V6FAEREIFEErCofpZbxQL9qMREQA5ATKCrdWORzO8EvlGe7tWrCIiACCSGwL3AKGBrYiRKiSByAMpr6IsAO+aiRELltYN6FwERiJ+AJfQZDjwWf9fq0QjIASj/OLDwwc8APcoviiQQAREQgVgIfBBm81NY31hw19yJHIAywq/StUUOfBT4QjLEkRQiIAIiUDICY4BLgbUl60EN50RADkBOmGJ5yGzxPeAWoH4sPaoTERABEYiPgEXzuwG4nVRHNo4P+N56kgOwN0Lx/9xSXT6ueAHxg1ePIiACJSOwErCAaC+XrAc1nDcBOQB5I4ulwv7A05msgkfF0ps6EQEREIHSEZgKnAf8q3RdqOVCCMgBKIRaPHUsbPDPgSu0WTMe4OpFBEQgUgKWwPAB4BogPYmLI0VY2sbkAJSWbxStnwX8FmgXRWNqQwREQARiILAMuBx4Poa+1EWBBOQAFAgu5mr7hk7A6TH3q+5EQAREIF8CFu78q4A5ASoJJiAHIMHGqUG0kWF6zKZuiS1pRUAEUkDAsvhZ+vNfpEBXL1SUA+CeGQ8G/pAJHmQBhFREQAREIAkE/g5cDPxfEoSRDLkRkAOQG6ekPWW5BOwsra0I1EuacJJHBEQgNQR2AHdlNvldp1j+7tlcDoB7Nqsq8aAwguB+bqsh6UVABBwksDiM6DfOQdklso6XeTEG2oYJhc7xQhspIQIi4AKBPwJfByzAj4qjBLQC4KjhahD7gjDFsFYD/LGpNBGBpBGwb/2WuvfJpAkmefInIAcgf2ZJrmFJhX4Snr/V3oAkW0qyiYBbBOxd/0PAd5XExy3D1SWtHAB/bFlVk+OA+4B/91M9aSUCIhAjgXfD5f6JMfaprmIgIAcgBshl6sJOCtjOXLssrLCKCIiACORDwML33hZeW/OpqGfdICAHwA07FSOlrQJYPO6BxTSiuiIgAqki8LcwD8l7qdI6ZcrKAUiHwc3Ow8PYAa3SobK0FAERKIDAqnDV8NeAJfNR8ZiAHACPjVuDah2BO8KIXbJ9umwvbUWgLgI22VuE0W8DHwlVOghoEkiHnatr2S88Mtg/nepLaxEQgSoEJgPXAm+ISroIyAFIl72ra3t+eGywW7oxSHsRSCWBeZnwvf+pM/2ptP1OpeUApNf2Wc2bhDkFrs+sCrQQDhEQAe8JfAzcEsbw1+5+781du4JyAFJs/Gqqt884hDeHmwUbCIsIiIB3BLaHwXxuBJZ7p50UypuAHIC8kXlfwdIN20bBU73XVAqKQHoIvBhu8LOgPioioFcAGgN1Ejgt3CjYW5xEQAScJTAL+A7wF2c1kOAlI6AVgJKh9aJhyydwHvAD4CAvNJISIpAOAu8AP8r83j4FWBx/FRHYg4AcAA2KXAhkHYGbgF65VNAzIiACZSEwOxPA54ea+MvC3rlO5QA4Z7KyClwfGALcIEegrHZQ5yJQnYBN/PaN/4nMit0nwiMCuRCQA5ALJT1TnUDWEbBvGgcIjwiIQNkIaOIvG3r3O5YD4L4Ny6mBHRe8GLAYAnIEymkJ9Z02AnPDs/z/o2/8aTN9dPrKAYiOZZpbMkfgonC3sR0jVBEBESgNAdvc99Mwbr+d61cRgYIJyAEoGJ0q1kLA4gd8CzhFkSY1RkQgEgKWqOcl4OfA2EhaVCMioD/QGgMlJGDHBq8BLgEs3LCKCIhAfgQ2ht/0784cx7Vv/ioiECkBrQBEilON1UCgQya96JXA14FOIiQCIrBXAkuBe4H7gRV7fVoPiECBBOQAFAhO1fIm0Ai4MHw90Cfv2qogAv4TmB4u8z+eydKnJD3+27vsGsoBKLsJUinAoHBV4CzAHAMVEUgrAZvonwfuA8alFYL0Lg8BOQDl4a5eAwKWgfBSYJhCDWtIpIyAvdN/GPg9sCxlukvdhBCQA5AQQ0gMjga+BlyQSULUQjxEwEMC64Anw4n/dQ/1k0qOEZAD4JjBUiBuBXB+uCpwrE6qpMDifqtoR/gmAr8FRgO2s19FBBJBQA5AIswgIWoh8G+hI2CvCfYTJRFwiMAS4NFw4n/fIbklaooIyAFIkbEdVtVyD5wYpiY+J9w74LA6Et1TAnZk79kwE994hej11MoeqSUHwCNjpkQVOQMpMbQjamrSd8RQEnNPAnIANCpcJiBnwGXruSu7Jn13bSfJqxCQA6Dh4AsBOQO+WDKZemjST6ZdJFURBOQAFAFPVRNLwJyBvmFCIktOdFQmdaplLFQRgVwJWKa9qWHynZfDz5/kWlnPiYALBOQAuGAlyVgsgVaARR+0DIXmEHQrtkHV95LAh+GEb5n3LCrfGi+1lFIiEBKQA6ChkEYCB4aOwODwdEGzNEKQzmwAXg1T7Vqa3dliIgJpIiAHIE3Wlq41EbBcBAPC1QG7Hwk0FSovCWwC3gQmZWxuy/oWoEdJd7w0tZTKhYAcgFwo6Zk0EWiYOctt2QqPyXwz7B/e9crAzRFgS/oWcndyeLdse9vcVEVSi0D0BOQARM9ULfpHwKIQZp0By1lwBNDYPzWd1mgL8HaVyd4m/sVOayThRaDEBOQAlBiwmveSgE3+B4fXIWEmQ/t3Z+UuKLm9Lbb+ImBWJjKkZdSz+8zwbk6AigiIQI4E5ADkCEqPiUAOBOy0gTkE5gwcVMVBaJNDXT2yJ4FVVSb47GRvE/5qwRIBESiegByA4hmqBRHYGwF7hZBdKegO7B9eXYB2KV41sG/zFmBnIbAgvOaHk75N9PZNX0UERKBEBOQAlAismhWBHAk0AcwRMKfA7vYawTYd2r87ALZ6YFfrHNtLymP2Ld2+wdu1LJzcbVOeTerZCd/um5MisOQQgbQRkAOQNotLX1cJ1ANaVnEIso5B1jloC9grCHMo7LJ9CnV9tp9njzva8Th7f26TcfZe12cLkLMyXIrPTvJV72uBHa6CltwikBYC/w/bHrC7kSz//gAAAABJRU5ErkJggg==;" vertex="1" parent="1">
          <mxGeometry x="200" y="158" width="512" height="512" as="geometry" />
        </mxCell>
      </root>
    </mxGraphModel>
  </diagram>
</mxfile>
